<svg width="156" height="127" viewBox="0 0 156 127" fill="none" xmlns="http://www.w3.org/2000/svg">
<path fill-rule="evenodd" clip-rule="evenodd" d="M155.781 46.997C155.741 16.5826 136.123 0.488212 110.759 0.455229C85.3954 0.422247 64.8597 20.8895 64.8935 46.8789C64.9211 68.1183 76.9399 85.557 98.6087 89.6649C92.3864 109.221 80.7413 126.707 80.7413 126.707L109.607 126.745C109.607 126.745 155.826 84.09 155.778 46.997L155.781 46.997Z" fill="#E43292" style="mix-blend-mode:multiply"/>
<path fill-rule="evenodd" clip-rule="evenodd" d="M91.6189 46.8173C91.5793 16.403 71.9604 0.308525 46.5968 0.275542C21.2333 0.242559 0.697549 20.7098 0.731346 46.6992C0.758967 67.9386 12.7778 85.3774 34.4466 89.4852C28.2243 109.041 16.5792 126.527 16.5792 126.527L45.4445 126.565C45.4445 126.565 91.6637 83.9103 91.6155 46.8173L91.6189 46.8173Z" fill="#0086D9"/>
<path fill-rule="evenodd" clip-rule="evenodd" d="M78.2218 22.044C76.9634 22.0423 75.9457 23.0601 75.9473 24.3185L76.0036 67.6455C76.0053 68.9039 77.0257 69.9243 78.2841 69.926C79.5425 69.9276 80.5603 68.9099 80.5586 67.6514L80.5023 24.3244C80.5006 23.066 79.4803 22.0456 78.2218 22.044Z" fill="white"/>
<path d="M32.652 37.3042C35.3471 36.8701 37.1743 34.3325 36.7332 31.6363C36.2922 28.94 33.7498 27.1062 31.0547 27.5402C28.3596 27.9743 26.5324 30.5119 26.9734 33.2081C27.4145 35.9044 29.9569 37.7382 32.652 37.3042Z" fill="white"/>
<path d="M32.6666 50.8071C35.3617 50.373 37.189 47.8354 36.7479 45.1392C36.3068 42.443 33.7645 40.6091 31.0694 41.0432C28.3743 41.4772 26.547 44.0148 26.9881 46.7111C27.4292 49.4073 29.9715 51.2412 32.6666 50.8071Z" fill="white"/>
<path d="M35.3847 62.9271C37.3133 60.9986 37.3092 57.8677 35.3756 55.9341C33.442 54.0005 30.3112 53.9965 28.3826 55.925C26.454 57.8536 26.4581 60.9845 28.3917 62.9181C30.3253 64.8516 33.4562 64.8557 35.3847 62.9271Z" fill="white"/>
<path d="M46.151 37.3208C48.8461 36.8867 50.6733 34.3491 50.2323 31.6529C49.7912 28.9566 47.2488 27.1228 44.5537 27.5568C41.8586 27.9909 40.0314 30.5285 40.4725 33.2247C40.9135 35.921 43.4559 37.7548 46.151 37.3208Z" fill="white"/>
<path d="M59.652 37.3403C62.3471 36.9062 64.1743 34.3686 63.7332 31.6724C63.2922 28.9762 60.7498 27.1423 58.0547 27.5764C55.3596 28.0104 53.5324 30.548 53.9734 33.2443C54.4145 35.9405 56.9569 37.7744 59.652 37.3403Z" fill="white"/>
<path d="M46.1666 50.8217C48.8617 50.3877 50.689 47.8501 50.2479 45.1538C49.8068 42.4576 47.2645 40.6237 44.5694 41.0578C41.8743 41.4919 40.047 44.0295 40.4881 46.7257C40.9292 49.422 43.4715 51.2558 46.1666 50.8217Z" fill="white"/>
<path d="M59.6647 50.8413C62.3598 50.4072 64.187 47.8696 63.7459 45.1734C63.3049 42.4771 60.7625 40.6433 58.0674 41.0773C55.3723 41.5114 53.5451 44.049 53.9861 46.7452C54.4272 49.4415 56.9696 51.2753 59.6647 50.8413Z" fill="white"/>
<path d="M48.8867 62.9457C50.8152 61.0171 50.8112 57.8863 48.8776 55.9527C46.944 54.0191 43.8131 54.015 41.8845 55.9436C39.956 57.8721 39.9601 61.003 41.8936 62.9366C43.8272 64.8702 46.9581 64.8743 48.8867 62.9457Z" fill="white"/>
<path d="M62.3847 62.9643C64.3133 61.0357 64.3092 57.9048 62.3756 55.9712C60.442 54.0376 57.3112 54.0336 55.3826 55.9621C53.454 57.8907 53.4581 61.0216 55.3917 62.9552C57.3253 64.8887 60.4562 64.8928 62.3847 62.9643Z" fill="white"/>
<path d="M98.4274 37.3872C101.122 36.9531 102.95 34.4155 102.509 31.7193C102.068 29.023 99.5252 27.1892 96.8301 27.6232C94.135 28.0573 92.3078 30.5949 92.7488 33.2911C93.1899 35.9874 95.7323 37.8212 98.4274 37.3872Z" fill="white"/>
<path d="M98.4459 50.8891C101.141 50.4551 102.968 47.9175 102.527 45.2212C102.086 42.525 99.5437 40.6911 96.8487 41.1252C94.1536 41.5593 92.3263 44.0969 92.7674 46.7931C93.2085 49.4893 95.7508 51.3232 98.4459 50.8891Z" fill="white"/>
<path d="M101.159 63.016C103.088 61.0875 103.084 57.9566 101.15 56.023C99.2164 54.0894 96.0856 54.0853 94.157 56.0139C92.2284 57.9425 92.2325 61.0733 94.1661 63.0069C96.0997 64.9405 99.2306 64.9446 101.159 63.016Z" fill="white"/>
<path d="M111.92 37.4038C114.615 36.9697 116.442 34.4321 116.001 31.7359C115.56 29.0396 113.017 27.2058 110.322 27.6398C107.627 28.0739 105.8 30.6115 106.241 33.3077C106.682 36.004 109.224 37.8378 111.92 37.4038Z" fill="white"/>
<path d="M129.199 34.4444C130.241 31.9227 129.039 29.0286 126.514 27.9802C123.99 26.9318 121.099 28.1262 120.057 30.6479C119.015 33.1696 120.217 36.0637 122.742 37.1121C125.266 38.1605 128.157 36.9661 129.199 34.4444Z" fill="white"/>
<path d="M111.942 50.9047C114.637 50.4707 116.464 47.9331 116.023 45.2368C115.582 42.5406 113.04 40.7068 110.345 41.1408C107.65 41.5749 105.822 44.1125 106.263 46.8087C106.705 49.505 109.247 51.3388 111.942 50.9047Z" fill="white"/>
<path d="M125.444 50.9233C128.139 50.4892 129.966 47.9516 129.525 45.2554C129.084 42.5592 126.542 40.7253 123.847 41.1594C121.152 41.5934 119.324 44.131 119.765 46.8273C120.207 49.5235 122.749 51.3574 125.444 50.9233Z" fill="white"/>
<path d="M114.666 63.0297C116.595 61.1011 116.59 57.9702 114.657 56.0367C112.723 54.1031 109.592 54.099 107.664 56.0276C105.735 57.9561 105.739 61.087 107.673 63.0206C109.607 64.9542 112.737 64.9582 114.666 63.0297Z" fill="white"/>
<path d="M128.164 63.0492C130.093 61.1207 130.089 57.9898 128.155 56.0562C126.221 54.1226 123.09 54.1185 121.162 56.0471C119.233 57.9757 119.237 61.1065 121.171 63.0401C123.105 64.9737 126.235 64.9778 128.164 63.0492Z" fill="white"/>
</svg>
