<svg width="480" height="527" viewBox="0 0 480 527" fill="none" xmlns="http://www.w3.org/2000/svg">
<path fill-rule="evenodd" clip-rule="evenodd" d="M419.028 274.883C391.293 247.221 358.769 250.431 335.641 273.499C312.512 296.568 312.45 333.909 336.149 357.547C355.517 376.864 382.344 381.8 405.819 365.808C417.961 389.283 423.281 415.814 423.281 415.814L449.603 389.56C449.603 389.56 452.849 308.623 419.025 274.886L419.028 274.883Z" fill="#F80094"/>
<path fill-rule="evenodd" clip-rule="evenodd" d="M360.434 333.151C332.7 305.489 300.176 308.699 277.047 331.767C253.918 354.836 253.856 392.177 277.555 415.815C296.923 435.132 323.75 440.068 347.225 424.076C359.368 447.552 364.687 474.082 364.687 474.082L391.009 447.828C391.009 447.828 394.255 366.891 360.431 333.154L360.434 333.151Z" fill="#0086D9"/>
<path fill-rule="evenodd" clip-rule="evenodd" d="M325.674 322.791C324.527 323.935 324.527 325.789 325.674 326.934L365.184 366.34C366.331 367.485 368.19 367.485 369.337 366.34C370.485 365.196 370.485 363.342 369.337 362.197L329.828 322.791C328.681 321.646 326.822 321.646 325.674 322.791Z" fill="white"/>
<path d="M298.071 378.189C300.13 375.339 299.483 371.364 296.626 369.311C293.769 367.257 289.784 367.902 287.724 370.752C285.665 373.601 286.312 377.577 289.169 379.63C292.027 381.684 296.012 381.039 298.071 378.189Z" fill="white"/>
<path d="M310.38 390.472C312.439 387.623 311.792 383.648 308.935 381.594C306.078 379.54 302.092 380.185 300.033 383.035C297.974 385.885 298.621 389.86 301.478 391.914C304.335 393.967 308.321 393.322 310.38 390.472Z" fill="white"/>
<path d="M323.894 399.034C323.894 395.522 321.039 392.674 317.517 392.674C313.996 392.674 311.141 395.522 311.141 399.034C311.141 402.547 313.996 405.395 317.517 405.395C321.039 405.395 323.894 402.547 323.894 399.034Z" fill="white"/>
<path d="M310.378 365.911C312.437 363.062 311.79 359.086 308.933 357.033C306.076 354.979 302.09 355.624 300.031 358.474C297.972 361.324 298.619 365.299 301.476 367.352C304.333 369.406 308.319 368.761 310.378 365.911Z" fill="white"/>
<path d="M322.692 353.632C324.751 350.782 324.104 346.807 321.247 344.753C318.39 342.7 314.405 343.345 312.346 346.195C310.286 349.044 310.933 353.019 313.79 355.073C316.648 357.127 320.633 356.482 322.692 353.632Z" fill="white"/>
<path d="M322.688 378.192C324.747 375.342 324.1 371.367 321.243 369.313C318.386 367.259 314.401 367.904 312.342 370.754C310.283 373.604 310.929 377.579 313.787 379.633C316.644 381.687 320.629 381.041 322.688 378.192Z" fill="white"/>
<path d="M334.995 365.917C337.054 363.067 336.407 359.092 333.55 357.039C330.693 354.985 326.707 355.63 324.648 358.48C322.589 361.329 323.236 365.305 326.093 367.358C328.95 369.412 332.936 368.767 334.995 365.917Z" fill="white"/>
<path d="M336.205 386.755C336.205 383.243 333.35 380.395 329.828 380.395C326.306 380.395 323.451 383.243 323.451 386.755C323.451 390.268 326.306 393.116 329.828 393.116C333.35 393.116 336.205 390.268 336.205 386.755Z" fill="white"/>
<path d="M348.517 374.479C348.517 370.966 345.662 368.119 342.14 368.119C338.619 368.119 335.764 370.966 335.764 374.479C335.764 377.992 338.619 380.839 342.14 380.839C345.662 380.839 348.517 377.992 348.517 374.479Z" fill="white"/>
<path d="M358.048 318.362C360.107 315.513 359.46 311.538 356.603 309.484C353.746 307.43 349.76 308.075 347.701 310.925C345.642 313.775 346.289 317.75 349.146 319.804C352.003 321.857 355.989 321.212 358.048 318.362Z" fill="white"/>
<path d="M370.36 330.642C372.419 327.793 371.772 323.817 368.915 321.764C366.058 319.71 362.073 320.355 360.014 323.205C357.954 326.055 358.601 330.03 361.458 332.083C364.316 334.137 368.301 333.492 370.36 330.642Z" fill="white"/>
<path d="M383.873 339.215C383.873 335.703 381.018 332.855 377.496 332.855C373.974 332.855 371.119 335.703 371.119 339.215C371.119 342.728 373.974 345.576 377.496 345.576C381.018 345.576 383.873 342.728 383.873 339.215Z" fill="white"/>
<path d="M370.35 306.089C372.409 303.239 371.763 299.264 368.905 297.21C366.048 295.157 362.063 295.802 360.004 298.652C357.945 301.501 358.592 305.476 361.449 307.53C364.306 309.584 368.291 308.939 370.35 306.089Z" fill="white"/>
<path d="M383.389 287.659C382.042 284.414 378.311 282.873 375.058 284.217C371.804 285.561 370.259 289.282 371.607 292.527C372.954 295.772 376.685 297.314 379.938 295.969C383.192 294.625 384.737 290.905 383.389 287.659Z" fill="white"/>
<path d="M382.667 318.364C384.726 315.515 384.079 311.54 381.222 309.486C378.365 307.432 374.379 308.077 372.32 310.927C370.261 313.777 370.908 317.752 373.765 319.806C376.622 321.859 380.608 321.214 382.667 318.364Z" fill="white"/>
<path d="M394.979 306.086C397.038 303.236 396.391 299.261 393.534 297.208C390.677 295.154 386.692 295.799 384.633 298.649C382.574 301.498 383.22 305.474 386.078 307.527C388.935 309.581 392.92 308.936 394.979 306.086Z" fill="white"/>
<path d="M396.189 326.927C396.189 323.414 393.334 320.567 389.812 320.567C386.291 320.567 383.436 323.414 383.436 326.927C383.436 330.44 386.291 333.287 389.812 333.287C393.334 333.287 396.189 330.44 396.189 326.927Z" fill="white"/>
<path d="M408.498 314.653C408.498 311.141 405.643 308.293 402.121 308.293C398.599 308.293 395.744 311.141 395.744 314.653C395.744 318.166 398.599 321.014 402.121 321.014C405.643 321.014 408.498 318.166 408.498 314.653Z" fill="white"/>
<path d="M542.782 542.781C643.064 442.499 643.064 279.908 542.782 179.626C442.499 79.3431 279.908 79.3431 179.626 179.626C79.3432 279.908 79.3432 442.499 179.626 542.781C279.908 643.064 442.499 643.064 542.782 542.781ZM489.589 232.818C560.494 303.724 560.494 418.684 489.589 489.589C418.684 560.494 303.724 560.494 232.818 489.589C161.913 418.684 161.913 303.724 232.818 232.818C303.724 161.913 418.684 161.913 489.589 232.818Z" stroke="white" stroke-width="2.76056"/>
<path d="M196.838 476.072L177.728 496.308L175.792 493.201L193.386 474.981L193.471 476.912L191.198 473.133L192.965 474.225L170.235 482.118L168.467 479.179L193.555 470.614L196.838 476.072ZM188.335 462.218L169.73 481.278L167.878 478.255L184.799 461.042L184.968 463.057L182.695 459.279L184.463 460.37L160.554 468.431L158.618 465.325L184.968 456.844L188.335 462.218Z" fill="white"/>
<path d="M180.166 446.853L155.331 457.348L153.9 454.074L178.734 443.578L180.166 446.853ZM157.267 453.402L154.321 454.662L149.354 442.99L152.3 441.731L157.267 453.402ZM167.959 448.952L165.012 450.211L160.298 439.296L163.244 438.036L167.959 448.952ZM179.071 444.25L176.125 445.509L170.989 433.502L173.936 432.242L179.071 444.25Z" fill="white"/>
<path d="M147.081 426.784L143.966 427.539L139.084 408.227L142.199 407.471L147.081 426.784ZM167.959 413.013L144.303 418.975L143.461 415.448L167.117 409.487L167.959 413.013Z" fill="white"/>
<path d="M164.26 396.889L137.405 400.499L136.899 396.973L163.755 393.362L164.26 396.889ZM154.242 395.965L151.127 396.385L150.201 389.248C150.032 388.072 149.696 387.233 149.106 386.477C148.517 385.721 147.844 385.217 147.002 384.882C146.16 384.546 145.234 384.462 144.139 384.546C143.129 384.714 142.203 384.966 141.446 385.553C140.688 386.141 140.183 386.813 139.762 387.736C139.425 388.576 139.257 389.584 139.425 390.759L140.351 397.896L137.152 398.232L136.31 391.683C136.058 389.752 136.142 387.988 136.479 386.477C136.815 384.966 137.573 383.706 138.752 382.698C139.846 381.775 141.361 381.103 143.298 380.851L143.887 380.767C145.823 380.515 147.423 380.767 148.77 381.439C150.117 382.111 151.127 383.118 151.969 384.462C152.726 385.889 153.316 387.485 153.568 389.416L154.242 395.965ZM162.071 380.431L151.295 390.843L150.79 386.645L161.482 376.149L162.071 380.431Z" fill="white"/>
<path d="M161.394 374.389L134.371 364.733L134.371 358.687L161.31 348.779L161.31 352.474L136.728 361.542L137.654 359.779V364.145L136.812 362.298L161.394 371.03L161.394 374.389ZM153.228 368.595L149.945 367.336L149.945 355.748L153.228 354.489L153.228 368.595Z" fill="white"/>
<path d="M161.73 343.993L135.127 340.13L135.969 334.253L161.393 324.177L161.561 323.001L162.067 323.841L137.99 320.314L138.495 316.955L165.097 320.818L164.255 326.696L138.831 336.772L138.663 337.947L138.158 337.107L162.235 340.634L161.73 343.993Z" fill="white"/>
<path d="M170.066 305.281C169.476 307.38 168.55 309.144 167.372 310.487C166.193 311.831 164.846 312.67 163.415 313.09C161.984 313.51 160.469 313.51 158.785 313.006L159.795 309.48C160.553 309.732 161.395 309.732 162.321 309.48C163.163 309.312 164.089 308.724 164.846 307.968C165.688 307.129 166.277 305.869 166.783 304.19C167.203 302.594 167.372 301.251 167.203 300.243C167.035 299.236 166.698 298.228 166.025 297.556C165.351 296.885 164.678 296.381 163.752 296.129C162.742 295.793 161.647 296.045 160.721 296.801C159.795 297.556 158.953 298.732 158.28 300.411L157.185 303.182C156.344 305.365 155.081 306.961 153.481 308.052C151.798 309.06 150.03 309.312 148.009 308.64C146.41 308.22 145.147 307.464 144.137 306.289C143.211 305.197 142.537 303.854 142.285 302.258C142.032 300.663 142.116 299.068 142.621 297.22C143.126 295.373 143.884 293.946 145.063 292.77C146.073 291.595 147.336 290.839 148.767 290.419C150.198 289.999 151.713 289.999 153.397 290.503L152.387 294.03C151.629 293.778 150.787 293.778 149.945 293.946C149.104 294.114 148.346 294.534 147.588 295.289C146.915 295.961 146.325 297.053 145.905 298.312C145.484 299.572 145.484 300.747 145.736 301.671C145.905 302.678 146.325 303.434 146.915 304.022C147.504 304.61 148.262 305.029 149.019 305.281C149.945 305.533 150.871 305.449 151.882 304.945C152.892 304.442 153.565 303.434 154.071 302.091L155.165 299.32C155.838 297.64 156.596 296.213 157.606 295.037C158.532 293.946 159.627 293.19 160.89 292.77C162.152 292.35 163.331 292.35 164.762 292.77C166.362 293.19 167.624 294.114 168.635 295.289C169.645 296.465 170.234 297.892 170.487 299.656C170.823 301.335 170.655 303.182 170.066 305.281Z" fill="white"/>
<path d="M174.612 289.329L149.777 278.833L151.208 275.558L176.043 286.054L174.612 289.329ZM153.902 277.574L150.956 276.314L155.67 265.063L158.616 266.322L153.902 277.574ZM164.678 282.108L161.731 280.848L166.193 270.185L169.14 271.444L164.678 282.108Z" fill="white"/>
<path d="M189.263 260.612C188 262.711 186.653 264.222 185.054 265.314C183.454 266.405 181.77 267.077 180.003 267.329C178.235 267.581 176.551 267.581 174.867 267.245C173.184 266.909 171.752 266.321 170.405 265.65L169.648 265.23C168.301 264.39 166.954 263.383 165.944 262.039C164.849 260.78 164.007 259.268 163.334 257.589C162.829 255.909 162.576 254.146 162.66 252.215C162.829 250.368 163.502 248.352 164.681 246.337C165.859 244.322 167.291 242.727 168.89 241.635C170.49 240.544 172.173 239.872 173.857 239.536C175.541 239.2 177.309 239.284 178.992 239.62C180.676 239.956 182.191 240.46 183.538 241.299L184.296 241.719C185.559 242.475 186.737 243.482 187.832 244.742C188.926 246.001 189.768 247.513 190.442 249.192C191.115 250.871 191.368 252.635 191.199 254.65C191.115 256.581 190.442 258.596 189.263 260.612ZM186.401 258.932C187.243 257.589 187.663 256.161 187.832 254.818C188 253.474 187.832 252.131 187.327 250.788C186.822 249.444 186.232 248.352 185.306 247.261C184.464 246.253 183.37 245.33 182.107 244.574C180.844 243.818 179.497 243.314 178.066 243.063C176.635 242.811 175.372 242.895 174.025 243.063C172.763 243.314 171.5 243.902 170.405 244.658C169.311 245.414 168.301 246.589 167.543 247.849C166.701 249.192 166.28 250.62 166.112 251.963C165.944 253.307 166.112 254.65 166.533 255.909C166.954 257.169 167.627 258.345 168.469 259.352C169.395 260.444 170.405 261.283 171.752 262.123C173.015 262.879 174.278 263.299 175.625 263.634C176.972 263.97 178.319 263.802 179.666 263.634C180.929 263.383 182.276 262.879 183.37 262.123C184.633 261.367 185.559 260.276 186.401 258.932Z" fill="white"/>
<path d="M199.195 243.82L177.98 227.027L180.253 224.256L201.468 241.05L199.195 243.82ZM192.881 236.012L190.355 233.996L194.817 228.371C195.491 227.531 195.912 226.607 196.08 225.6C196.164 224.676 196.08 223.752 195.743 222.913C195.406 222.073 194.817 221.317 193.975 220.646C193.133 219.974 192.292 219.638 191.365 219.386C190.524 219.218 189.598 219.302 188.587 219.638C187.746 219.974 186.904 220.646 186.23 221.485L181.768 227.111L179.327 225.18L183.452 220.058C184.631 218.547 185.978 217.371 187.325 216.531C188.756 215.776 190.103 215.44 191.534 215.524C192.965 215.608 194.48 216.279 196.08 217.539L196.585 217.875C198.1 219.05 199.111 220.394 199.531 221.821C199.952 223.249 200.037 224.676 199.531 226.187C199.026 227.699 198.185 229.21 197.006 230.722L192.881 236.012ZM209.55 230.806L194.649 230.386L197.258 227.111L212.243 227.447L209.55 230.806Z" fill="white"/>
<path d="M215.192 224.002L196.755 204.438L200.207 201.163L218.307 208.804L218.728 208.384L212.161 189.911L215.697 186.553L234.134 206.117L231.524 208.552L215.781 191.843L216.034 191.759L222.432 209.56L219.233 212.582L201.722 205.193L201.806 204.941L217.549 221.651L215.192 224.002Z" fill="white"/>
<path d="M247.432 196.547L232.783 173.708L235.898 171.777L250.546 194.616L247.432 196.547ZM249.873 194.951L248.189 192.265L254.587 188.234C255.85 187.478 256.524 186.471 256.776 185.379C257.029 184.288 256.692 183.112 256.018 181.937C255.261 180.677 254.335 180.089 253.24 179.837C252.146 179.586 250.967 179.921 249.705 180.677L243.306 184.708L242.044 182.776L248.021 178.998C249.452 178.074 250.883 177.486 252.146 177.067C253.493 176.731 254.671 176.731 255.934 177.151C257.197 177.57 258.123 178.494 259.049 179.921L259.302 180.341C260.144 181.685 260.564 182.944 260.649 184.204C260.733 185.463 260.312 186.723 259.554 187.814C258.712 188.99 257.534 190.165 255.85 191.173L249.873 194.951ZM242.97 184.204L241.707 182.272L247.263 178.746C248.61 177.906 249.199 176.983 249.452 175.891C249.62 174.883 249.368 173.792 248.694 172.616C247.937 171.525 247.095 170.853 246.085 170.517C245.074 170.181 243.896 170.517 242.633 171.273L237.077 174.799L235.393 172.113L240.36 169.006C242.801 167.41 244.99 166.739 246.926 166.991C248.863 167.242 250.378 168.418 251.641 170.349L251.893 170.769C252.819 172.196 253.24 173.456 253.072 174.632C252.988 175.891 252.483 176.899 251.557 177.99C250.631 179.082 249.536 180.005 248.021 181.013L242.97 184.204Z" fill="white"/>
<path d="M278.415 179.582C276.227 180.59 274.122 181.009 272.27 180.842C270.418 180.674 268.734 180.002 267.219 178.826C265.703 177.651 264.525 175.971 263.515 173.956L256.696 159.262L259.979 157.667L267.05 172.781C267.724 174.124 268.482 175.216 269.492 176.055C270.502 176.895 271.596 177.315 272.943 177.483C274.29 177.651 275.637 177.315 277.153 176.643C278.668 175.971 279.762 175.048 280.436 174.04C281.109 173.033 281.614 171.857 281.614 170.514C281.699 169.254 281.362 167.911 280.688 166.567L273.617 151.453L276.9 149.858L283.719 164.552C284.645 166.651 285.066 168.582 285.066 170.43C284.982 172.361 284.477 174.04 283.382 175.636C282.288 177.231 280.688 178.49 278.415 179.582Z" fill="white"/>
<path d="M303.501 170.012C301.313 170.683 299.461 170.851 297.693 170.599C295.925 170.348 294.494 169.76 293.315 168.752C292.136 167.745 291.295 166.401 290.789 164.89L294.241 163.798C294.494 164.554 294.915 165.31 295.588 165.981C296.261 166.653 297.188 167.073 298.282 167.325C299.376 167.577 300.808 167.325 302.491 166.821C304.007 166.317 305.269 165.729 306.027 164.974C306.869 164.134 307.458 163.378 307.627 162.539C307.879 161.615 307.879 160.775 307.542 159.936C307.206 158.928 306.448 158.172 305.354 157.752C304.259 157.333 302.744 157.333 300.892 157.669L297.945 158.256C295.588 158.76 293.568 158.592 291.8 157.836C290.032 157.081 288.937 155.653 288.264 153.638C287.759 152.127 287.759 150.615 288.18 149.188C288.601 147.76 289.358 146.501 290.537 145.493C291.631 144.402 293.147 143.562 294.999 143.058C296.767 142.471 298.45 142.303 300.05 142.555C301.649 142.806 302.912 143.394 304.091 144.402C305.269 145.409 306.027 146.669 306.532 148.348L303.333 149.188C303.081 148.432 302.66 147.676 302.07 147.089C301.481 146.501 300.723 146.081 299.713 145.913C298.787 145.661 297.608 145.829 296.262 146.165C294.999 146.585 293.988 147.089 293.315 147.76C292.642 148.432 292.136 149.272 291.968 150.112C291.8 150.951 291.8 151.791 292.052 152.547C292.305 153.47 292.978 154.142 293.904 154.73C294.915 155.233 296.009 155.317 297.524 154.982L300.471 154.394C302.239 153.974 303.838 153.89 305.354 154.058C306.785 154.31 308.047 154.73 309.058 155.569C310.068 156.409 310.741 157.417 311.162 158.844C311.667 160.355 311.583 161.951 311.162 163.378C310.741 164.806 309.815 166.233 308.553 167.325C307.206 168.5 305.522 169.34 303.501 170.012Z" fill="white"/>
<path d="M319.579 165.06L314.107 138.778L317.643 138.106L323.115 164.388L319.579 165.06Z" fill="white"/>
<path d="M330.777 162.621L328.083 135.92L333.892 135.332L349.887 157.499L351.066 157.331L350.393 158.003L347.867 133.82L351.319 133.401L354.013 160.102L348.035 160.69L332.04 138.522L330.862 138.69L331.535 138.019L334.061 162.201L330.777 162.621Z" fill="white"/>
<path d="M361.758 160.273L362.6 133.403L366.22 133.487L365.378 160.357L361.758 160.273ZM364.704 160.357L364.788 157.082L377.837 157.502L377.753 160.776L364.704 160.357ZM365.041 148.265L365.125 144.991L377.079 145.327L376.995 148.601L365.041 148.265ZM365.378 136.678L365.462 133.403L378.174 133.823L378.09 137.098L365.378 136.678Z" fill="white"/>
<path d="M392.062 163.128C389.874 162.792 388.021 162.12 386.59 161.197C385.159 160.273 384.065 159.014 383.391 157.67C382.802 156.243 382.549 154.815 382.802 153.052L386.338 153.556C386.254 154.311 386.338 155.235 386.675 156.075C387.011 156.914 387.601 157.67 388.527 158.426C389.453 159.181 390.8 159.517 392.483 159.853C394.083 160.105 395.43 160.105 396.524 159.685C397.619 159.265 398.46 158.93 399.05 158.174C399.639 157.418 400.06 156.662 400.144 155.739C400.228 154.647 399.976 153.724 399.134 152.884C398.292 152.044 396.945 151.373 395.177 150.953L392.315 150.281C389.958 149.777 388.19 148.686 386.927 147.258C385.664 145.831 385.243 144.067 385.496 141.968C385.748 140.373 386.338 138.945 387.264 137.854C388.19 136.762 389.453 136.007 390.968 135.503C392.483 134.999 394.251 134.915 396.019 135.167C397.871 135.503 399.387 136.007 400.733 136.846C402.08 137.686 403.006 138.778 403.596 140.205C404.185 141.632 404.438 143.06 404.101 144.739L400.565 144.235C400.733 143.396 400.565 142.556 400.313 141.8C399.976 140.961 399.471 140.289 398.713 139.701C397.955 139.113 396.861 138.694 395.514 138.526C394.167 138.358 393.073 138.442 392.147 138.694C391.221 138.945 390.463 139.533 389.958 140.205C389.453 140.877 389.032 141.632 388.948 142.556C388.779 143.564 389.032 144.487 389.705 145.327C390.379 146.167 391.389 146.838 392.904 147.174L395.767 147.846C397.534 148.266 399.134 148.854 400.313 149.693C401.575 150.449 402.417 151.456 403.006 152.548C403.596 153.64 403.764 154.983 403.512 156.411C403.259 158.006 402.67 159.433 401.575 160.525C400.481 161.616 399.134 162.456 397.45 162.96C396.019 163.38 394.167 163.38 392.062 163.128Z" fill="white"/>
<path d="M416.73 168.247C414.626 167.66 412.858 166.736 411.511 165.728C410.164 164.553 409.238 163.293 408.817 161.866C408.312 160.355 408.312 158.843 408.733 157.248L412.184 158.171C411.932 158.927 411.932 159.767 412.184 160.69C412.437 161.614 412.942 162.454 413.7 163.209C414.542 164.049 415.804 164.637 417.488 165.141C419.088 165.56 420.435 165.728 421.529 165.477C422.708 165.309 423.634 164.889 424.223 164.301C424.896 163.629 425.402 162.958 425.654 162.034C425.907 160.942 425.738 159.935 424.981 159.011C424.223 158.087 423.044 157.248 421.276 156.66L418.498 155.568C416.31 154.729 414.626 153.553 413.531 151.958C412.437 150.363 412.269 148.515 412.774 146.5C413.195 144.905 413.952 143.645 415.131 142.638C416.225 141.714 417.572 141.042 419.088 140.706C420.687 140.454 422.287 140.538 424.139 141.042C425.991 141.546 427.422 142.302 428.601 143.309C429.779 144.317 430.537 145.576 431.042 146.92C431.463 148.347 431.463 149.859 430.958 151.538L427.506 150.614C427.675 149.775 427.759 149.019 427.506 148.095C427.338 147.256 426.917 146.5 426.159 145.744C425.486 145.073 424.391 144.485 423.129 144.065C421.782 143.729 420.687 143.645 419.761 143.897C418.835 144.149 417.993 144.485 417.404 145.073C416.815 145.66 416.394 146.416 416.141 147.172C415.889 148.095 415.973 149.019 416.562 149.943C417.151 150.866 418.077 151.622 419.424 152.126L422.202 153.217C423.97 153.805 425.317 154.645 426.496 155.652C427.59 156.576 428.348 157.668 428.769 158.927C429.19 160.187 429.19 161.362 428.769 162.79C428.348 164.385 427.506 165.728 426.243 166.652C425.065 167.66 423.634 168.247 421.866 168.499C420.687 169.003 418.751 168.919 416.73 168.247Z" fill="white"/>
<path d="M432.721 172.617L442.907 147.679L446.275 149.022L436.088 173.961L432.721 172.617ZM435.331 173.709L436.509 170.686L448.548 175.64L447.369 178.663L435.331 173.709ZM439.961 162.541L441.139 159.518L452.168 163.969L450.989 166.991L439.961 162.541ZM444.338 151.793L445.517 148.771L457.219 153.557L456.04 156.579L444.338 151.793Z" fill="white"/>
<path d="M460 185.881C458.064 184.79 456.549 183.614 455.539 182.103C454.528 180.759 453.939 179.164 453.855 177.737C453.771 176.141 454.107 174.63 454.949 173.286L458.064 175.05C457.643 175.805 457.475 176.645 457.475 177.485C457.391 178.408 457.812 179.332 458.401 180.256C458.99 181.179 460.085 182.103 461.6 182.943C463.031 183.698 464.294 184.118 465.388 184.202C466.483 184.286 467.493 184.118 468.335 183.614C469.092 183.194 469.766 182.523 470.187 181.767C470.692 180.759 470.692 179.752 470.271 178.66C469.85 177.569 468.756 176.477 467.24 175.47L464.715 173.79C462.694 172.447 461.432 170.851 460.842 169.088C460.169 167.241 460.421 165.478 461.432 163.63C462.189 162.203 463.284 161.111 464.631 160.44C465.978 159.768 467.325 159.432 468.924 159.516C470.524 159.6 472.123 160.02 473.807 161.027C475.406 161.951 476.669 163.042 477.595 164.302C478.521 165.561 479.026 166.905 479.111 168.5C479.195 169.928 478.858 171.439 478.016 172.951L474.901 171.187C475.322 170.432 475.491 169.592 475.491 168.752C475.491 167.913 475.238 166.989 474.733 166.149C474.228 165.31 473.302 164.554 472.123 163.882C470.945 163.21 469.85 162.959 468.924 162.875C467.998 162.791 467.072 163.042 466.314 163.462C465.557 163.882 464.967 164.47 464.546 165.226C464.041 166.065 463.957 166.989 464.294 167.997C464.631 169.004 465.388 169.928 466.567 170.767L469.092 172.447C470.608 173.454 471.871 174.546 472.712 175.721C473.554 176.897 474.144 178.156 474.228 179.416C474.312 180.675 474.059 181.935 473.386 183.278C472.628 184.706 471.534 185.797 470.103 186.553C468.672 187.309 467.156 187.477 465.388 187.393C463.62 187.477 461.853 186.889 460 185.881Z" fill="white"/>
<path d="M473.216 193.021L475.742 189.327L479.278 191.678L476.752 195.372L473.216 193.021Z" fill="white"/>
</svg>
