<?xml version="1.0" encoding="UTF-8"?>
<svg id="Layer_1" data-name="Layer 1" xmlns="http://www.w3.org/2000/svg" viewBox="0 0 401.3 401.2">
  <defs>
    <style>
      .cls-1 {
        fill-rule: evenodd;
      }

      .cls-1, .cls-2 {
        fill: #949494;
      }
    </style>
  </defs>
  <g id="Layer_1-2" data-name="Layer 1">
    <path class="cls-1" d="m401.3,200.6c0,110.8-89.8,200.6-200.6,200.6C89.8,401.3,0,311.5,0,200.6S89.8,0,200.6,0s200.7,89.8,200.7,200.6Zm-200.7,139.8c77.2,0,139.7-62.6,139.7-139.7S277.7,61,200.6,61,60.9,123.6,60.9,200.7c0,77.1,62.6,139.7,139.7,139.7Zm0,58.6c109.6,0,198.4-88.8,198.4-198.4S310.2,2.3,200.6,2.3,2.3,91.1,2.3,200.6s88.8,198.4,198.3,198.4Zm142.1-198.4c0,78.4-63.6,142-142,142S58.7,279,58.7,200.6,122.3,58.6,200.7,58.6s142,63.6,142,142Z"/>
    <path class="cls-2" d="m72.6,332.3c-.9-.9-1.7-1.9-2.1-3-.5-1.1-.6-2.2-.7-3.4,0-1.2.3-2.3.7-3.4.5-1.1,1.2-2.1,2.1-3.1l.5-.5c.9-.9,1.9-1.7,3-2.2,1.1-.6,2.2-.8,3.4-.9,1.2-.1,2.3.1,3.4.5s2.1,1.1,3.1,2c1,1,1.8,2.1,2.1,3.3.4,1.2.4,2.5,0,3.9s-1.2,2.8-2.5,4.2l.4-2.3,8.7-8.9,2.9,2.8-17.3,17.8-2.3-2.2,5.5-5.7.6.6c-1.5,1.4-2.9,2.2-4.2,2.7-1.4.4-2.8.4-4,0-1.2-.5-2.4-1.3-3.3-2.2Zm2.9-1.9c.7.7,1.6,1.2,2.5,1.5s1.8.3,2.9,0c1-.3,1.8-.8,2.7-1.7l1-1c.8-.8,1.3-1.8,1.5-2.7.2-.9.2-1.8-.2-2.8-.3-.9-.8-1.7-1.6-2.4-.8-.7-1.7-1.3-2.7-1.5s-1.9-.2-3,.2c-1,.4-1.9,1-2.9,1.9s-1.5,1.9-1.8,3c-.3,1-.4,2-.1,3,.3.8.9,1.7,1.7,2.5Z"/>
    <path class="cls-2" d="m95.6,351.6c-1.3-.9-2.3-1.9-3.1-3.1-.7-1.1-1.1-2.3-1.3-3.5-.2-1.2-.1-2.4.2-3.6.3-1.2.8-2.2,1.5-3.2l.4-.6c.7-1,1.6-1.8,2.6-2.5,1-.6,2.1-1.1,3.3-1.4,1.2-.3,2.5-.2,3.8.1,1.3.3,2.6.9,3.9,1.8s2.3,1.9,3,3.1c.6,1.1,1.1,2.3,1.3,3.5.2,1.2.1,2.4-.2,3.6-.3,1.2-.8,2.3-1.5,3.2l-.4.6c-.7,1-1.6,1.8-2.6,2.5-1,.6-2.1,1.1-3.3,1.4-1.2.3-2.5.2-3.8-.1-1.3-.2-2.5-.9-3.8-1.8Zm2-2.8c1,.7,2,1.1,3.1,1.2,1,.1,2-.2,3-.6.9-.6,1.8-1.3,2.4-2.2.7-1,1.1-2,1.3-3,.2-1,0-2-.4-3-.4-.9-1.1-1.8-2.1-2.5s-2-1.1-3-1.1c-1-.1-2,.2-3,.6-.9.5-1.8,1.3-2.5,2.2-.6.9-1.1,1.9-1.3,3-.2,1-.1,2,.4,3,.3.8,1.1,1.6,2.1,2.4Z"/>
    <path class="cls-2" d="m117.9,365.1c-1.9-1-3.1-2.3-3.5-4.2-.4-1.8,0-3.9,1.2-6.3l4.8-9.5,3.6,1.8-5.1,10c-.6,1.1-.7,2.2-.4,3.1.3,1,1,1.8,2,2.3,1.1.6,2.2.6,3.2.3,1-.4,1.8-1.1,2.5-2.3l4.9-9.8,3.6,1.8-8.3,16.4-2.9-1.4,3.5-7,.4.2c-.8,1.7-1.8,3-2.8,3.8-1,.9-2,1.4-3.2,1.6-1,.1-2.2-.1-3.5-.8Z"/>
    <path class="cls-2" d="m146.5,377c-1.4-.5-2.6-1.2-3.5-2.2s-1.5-2.2-1.8-3.6-.2-3,.4-4.7l.7.3-2.4,7.4-3-1,7.6-23.7,3.8,1.2-3.8,11.7-1.8,1.8c.6-1.8,1.6-3.2,2.6-4.2s2.2-1.6,3.5-1.8c1.3-.3,2.6-.1,4,.3,1.2.4,2.3,1,3.1,1.8.8.7,1.5,1.7,2,2.8.5,1,.7,2.2.7,3.4s-.2,2.4-.5,3.7l-.2.6c-.4,1.3-1,2.4-1.8,3.3-.7.9-1.7,1.8-2.7,2.3-1,.6-2.1.9-3.3,1.1-1.1,0-2.3-.2-3.6-.5Zm.3-3.5c1.1.4,2,.4,3,.1s1.8-.7,2.6-1.6c.7-.7,1.3-1.8,1.7-3s.5-2.3.4-3.4c-.2-1-.6-1.9-1.2-2.7-.6-.7-1.5-1.3-2.5-1.7-.9-.3-1.9-.4-2.9-.2-.9.2-1.8.6-2.6,1.2-.7.6-1.3,1.6-1.7,2.7l-.5,1.4c-.4,1.1-.4,2.1-.2,3,.3.9.7,1.8,1.4,2.5.8.8,1.6,1.4,2.5,1.7Z"/>
    <path class="cls-2" d="m164.5,381.1l4.8-24.5,4,.7-4.8,24.5-4-.7Zm1.7-22l.6-3,6.4,1.2-.6,3-6.4-1.2Z"/>
    <path class="cls-2" d="m186.6,384.9c-1.6-.1-3-.6-4.1-1.2s-2-1.5-2.7-2.4c-.6-.9-1.1-2-1.5-3.1-.3-1.1-.4-2.3-.3-3.5l.1-.6c.1-1.2.4-2.3.8-3.4.5-1.1,1.1-2,1.9-2.9s1.8-1.5,3-1.9c1.2-.5,2.6-.5,4.1-.5,1.9.2,3.6.7,4.8,1.7s2.1,2.2,2.7,3.6c.6,1.4.7,3,.7,4.5l-.1,1.6-16.2-1.4.2-2.7,13.6,1.1-1.2,1.3c.1-1.2,0-2.3-.3-3.2-.3-.9-.8-1.7-1.6-2.2-.7-.6-1.7-.8-2.8-.9-1.2-.1-2.2.1-3,.5-.8.5-1.5,1.2-1.9,2.1-.5.9-.7,2-.8,3.3-.1,1.2,0,2.3.3,3.3s.8,1.8,1.6,2.4c.7.6,1.8,1,3,1.1,1.3.1,2.3-.1,3.2-.5.8-.5,1.4-1.1,1.7-1.8l3.7.3c-.4,1.2-.9,2.3-1.8,3.1-.8.8-1.8,1.5-3,1.9-1.2.4-2.6.5-4.1.4Z"/>
    <path class="cls-2" d="m204.8,385l-1.2-18.4,3.1-.2.6,7.8h-.4c-.1-1.8,0-3.3.5-4.6.4-1.3,1.1-2.3,2-3s2.2-1.1,3.7-1.2h.2c2.3-.2,4,.5,5.3,1.9s1.9,3.4,2.1,6.2l.7,10.5-4,.3-.8-11.1c-.1-1.3-.6-2.3-1.3-3s-1.8-1.1-3-1c-1.3.1-2.3.6-3,1.4s-1.1,1.9-1,3.3l.8,10.9-4.3.2Z"/>
    <path class="cls-2" d="m226.8,367.8l-.6-3,6.6-1.2.6,3-6.6,1.2Zm2.9-6.3c-.8.2-1.5,0-1.9-.3-.5-.4-.7-.8-.9-1.6-.1-.6,0-1.2.3-1.8.3-.5.8-.8,1.7-1,.8-.2,1.5,0,1.9.4.5.4.7.8.8,1.6.1.6,0,1.3-.3,1.8-.1.4-.8.7-1.6.9Zm2.4,20.8l-3.3-18.1,4-.7,3.3,18.1-4,.7Z"/>
    <path class="cls-2" d="m246.4,379.6l-5.3-17.6,3-.9,2.2,7.6-.4.1c-.6-1.8-.7-3.3-.7-4.6.1-1.4.6-2.5,1.3-3.4s1.8-1.6,3.3-2l.2-.1c2.2-.6,4-.5,5.4.7,1.5,1,2.6,2.9,3.4,5.5l3.1,10.1-3.8,1.1-3.2-10.5c-.4-1.2-1-2.1-1.9-2.7s-2-.6-3.2-.3c-1.2.4-2.1,1-2.7,2-.6,1-.6,2.1-.2,3.4l3.2,10.4-3.7,1.2Z"/>
    <path class="cls-2" d="m279.8,368.2c-1.5.6-2.9,1-4.2,1s-2.5-.3-3.5-.7c-1-.5-2-1.2-2.9-2s-1.5-1.8-1.9-2.9l-.3-.6c-.6-1.1-.8-2.2-1-3.4-.1-1.2-.1-2.3.3-3.5.3-1.1.8-2.2,1.7-3.1.8-1,1.9-1.8,3.3-2.4,1.8-.8,3.5-1.1,5.1-.9s3,.8,4.2,1.8,2.1,2.2,2.8,3.6l.6,1.5-14.8,6.9-1.2-2.5,12.4-5.7-.4,1.7c-.6-1.1-1.1-2-1.9-2.7-.7-.6-1.6-1-2.4-1.2-.9-.1-1.8.1-2.9.6s-1.8,1.2-2.3,2-.7,1.8-.6,2.8.4,2.1.9,3.3c.6,1.1,1.2,2,1.9,2.8.7.7,1.7,1.1,2.6,1.3,1,.2,2,0,3.2-.6,1.1-.6,2-1.2,2.5-2.1.5-.8.6-1.7.6-2.4l3.4-1.6c.3,1.2.3,2.4,0,3.6s-.8,2.2-1.7,3.1c-1.1.9-2.2,1.6-3.5,2.3Z"/>
    <path class="cls-2" d="m301,356.3c-2.1,1.4-4,1.9-5.7,1.8-1.8-.1-3.1-.9-4.2-2.5l3.1-2c.4.6,1,.9,1.9,1,.8.1,1.9-.2,3.2-1,1.1-.6,1.8-1.5,2.1-2.2.4-.8.3-1.6-.1-2.2s-.9-.9-1.6-.9c-.6,0-1.6.2-2.7.8l-1.6.8c-1.7.8-3.2,1.2-4.7,1-1.4-.2-2.6-.9-3.4-2.2-.6-1-.9-2-.9-3.1.1-1,.5-2,1.1-3,.6-.9,1.6-1.8,2.8-2.6,1.8-1.2,3.6-1.7,5.3-1.7,1.7.1,3,.9,4.1,2.4l-3,1.9c-.5-.6-1-.9-1.8-.9-.7-.1-1.7.2-2.7.9-.9.6-1.6,1.3-1.8,2-.3.7-.2,1.4.2,1.9.4.6.8.8,1.4.9s1.3-.2,2.2-.6l1.6-.8c1.8-.9,3.6-1.4,5.1-1.2,1.6.1,2.8.8,3.6,2.2.6,1,.9,2,.8,3.1s-.5,2.2-1.2,3.2c-.7,1.3-1.7,2.2-3.1,3Z"/>
    <path class="cls-2" d="m313.4,346.9l-3-3.8,3.6-2.9,3,3.8-3.6,2.9Z"/>
    <path class="cls-2" d="m330.3,333c-1.1,1.1-2.3,1.8-3.5,2.3s-2.4.6-3.6.5-2.3-.5-3.4-1c-1-.6-2-1.2-2.8-2l-.5-.5c-.8-.8-1.5-1.8-2-3-.6-1.1-.8-2.2-.9-3.4-.1-1.2.1-2.4.5-3.6.5-1.2,1.2-2.3,2.3-3.4,1.1-1.1,2.3-1.8,3.6-2.3,1.3-.5,2.6-.6,3.9-.3,1.3.3,2.5.8,3.5,1.9l-2.8,2.7c-.8-.6-1.8-.9-2.8-.9s-2,.6-3,1.5c-.8.8-1.4,1.7-1.6,2.7-.2.9-.1,1.8.3,2.9.4.9,1,1.8,1.8,2.8.8.8,1.8,1.5,2.7,1.9.9.5,1.8.6,2.9.4.9-.2,1.8-.6,2.7-1.5.6-.6,1.1-1.3,1.4-2s.4-1.4.2-2.1c-.1-.6-.4-1.3-.8-1.8l2.8-2.7c1,1.1,1.6,2.3,1.8,3.6.2,1.3.1,2.7-.5,4-.3,1-1.1,2.2-2.2,3.3Z"/>
    <path class="cls-2" d="m347.9,313.1c-1,1.3-2,2.2-3.2,3-1.2.6-2.4,1-3.6,1.2-1.2.1-2.4,0-3.6-.3-1.2-.4-2.2-.8-3.1-1.6l-.6-.4c-.9-.7-1.8-1.7-2.4-2.7s-1-2.2-1.3-3.4c-.2-1.2-.1-2.5.2-3.8.4-1.3.9-2.6,1.9-3.8.9-1.3,2-2.2,3.1-2.9,1.2-.6,2.3-1,3.6-1.2,1.2-.2,2.5-.1,3.6.3,1.2.4,2.2.8,3.2,1.6l.6.4c.9.7,1.8,1.6,2.4,2.7.6,1,1,2.1,1.3,3.3.3,1.2.1,2.5-.2,3.8-.2,1.3-1,2.5-1.9,3.8Zm-2.8-2.2c.7-1,1.2-2,1.3-3,.1-1-.1-2-.6-3-.5-.9-1.2-1.8-2.1-2.5s-1.9-1.2-3-1.4c-1-.2-2-.1-3,.3s-1.8,1-2.6,2c-.7,1-1.2,2-1.3,3-.1,1,.1,2,.6,3,.5.9,1.2,1.8,2.1,2.5s1.9,1.2,3,1.4c1,.2,2,.1,3-.3,1-.3,1.8-.9,2.6-2Z"/>
    <g>
      <path class="cls-2" d="m38.1,127.4l1.5-3.2,24.3,2.2-1.4,3.1-7.2-.8-3.9,8.2,5.2,5.2-1.4,2.9-17.1-17.6Zm14.4,1.1l-10.7-1.2,7.6,7.7,3.1-6.5Z"/>
      <path class="cls-2" d="m47.4,109.5l1.7-2.6,16.9,11.1,6.4-9.7,2.3,1.5-8.1,12.3-19.2-12.6Z"/>
      <path class="cls-2" d="m60.6,90.6l2-2.4,15.4,13.2,7.6-8.8,2.1,1.8-9.7,11.1-17.4-14.9Z"/>
      <path class="cls-2" d="m88.9,62.4l2.8-2.2,20.7,12.9-2.7,2.1-6.1-4-7.1,5.6,2.3,6.9-2.5,2-7.4-23.3Zm12.4,7.5l-9-5.8,3.4,10.3,5.6-4.5Z"/>
      <path class="cls-2" d="m105.5,50.2l3.9-2.1,15,13.9-3.5-20.2,3.9-2.1,11,20.2-2.6,1.4-6.5-11.9c-.2-.4-.6-1.1-1.1-2.1s-1-2-1.6-3.1l3.5,20.1-2.7,1.5-15.1-13.8.3.6c.3.5.7,1.2,1.3,2.2s1,1.7,1.2,2.2l6.5,11.9-2.6,1.4-10.9-20.1Z"/>
      <path class="cls-2" d="m134.9,35.5l15.8-5.5.9,2.7-12.9,4.5,2.3,6.6,12-4.1.9,2.5-12,4.1,2.5,7.4,13.2-4.6.9,2.6-16,5.6-7.6-21.8Z"/>
      <path class="cls-2" d="m160.9,27.4l10.5-1.9c1.7-.3,3.2-.3,4.4,0,2.3.6,3.7,2.2,4.1,4.8.2,1.4.2,2.5-.2,3.5s-1.1,1.8-2,2.5c.9.2,1.7.6,2.2,1.1.6.5,1,1.4,1.3,2.7l.7,3c.2.9.4,1.5.6,1.9.3.7.7,1.1,1.2,1.2l.1.5-3.8.7c-.1-.2-.3-.4-.4-.7s-.3-.9-.5-1.8l-.9-3.7c-.3-1.5-1.1-2.4-2.2-2.7-.6-.2-1.6-.1-2.8.1l-7,1.2,1.7,9.7-2.9.5-4.1-22.6Zm12,8.5c1.4-.3,2.5-.7,3.3-1.5.7-.7,1-1.8.7-3.3-.3-1.6-1.1-2.6-2.3-3-.7-.2-1.5-.2-2.6,0l-7.5,1.3,1.4,7.7,7-1.2Z"/>
      <path class="cls-2" d="m189.2,23.4l3.1-.2,1.4,22.9-3.1.2-1.4-22.9Z"/>
      <path class="cls-2" d="m218.8,25.4c1.5,1.6,2.3,3.4,2.4,5.4l-3-.2c-.3-1.5-.9-2.7-1.8-3.6s-2.4-1.4-4.2-1.6c-2.3-.1-4.1.6-5.6,2.1s-2.3,3.9-2.5,7.2c-.2,2.7.3,4.9,1.5,6.6,1.2,1.7,3,2.7,5.5,2.8,2.3.1,4.1-.6,5.4-2.3.7-.9,1.2-2.1,1.6-3.6l3,.2c-.4,2.4-1.4,4.4-3,5.9-1.9,1.9-4.4,2.7-7.5,2.5-2.7-.2-4.8-1.1-6.6-2.8-2.3-2.3-3.2-5.6-3-10.1.2-3.4,1.3-6.1,3.2-8.2,2.1-2.2,4.8-3.3,8.2-3.1,2.7.3,4.9,1.2,6.4,2.8Z"/>
      <path class="cls-2" d="m237.8,26.8l3.4.8,3.2,24.2-3.3-.7-.8-7.2-8.9-1.9-3.9,6.2-3.1-.7,13.4-20.7Zm2.1,14.4l-1.2-10.7-5.8,9.1,7,1.6Z"/>
      <path class="cls-2" d="m253.8,47.2c-.4,1.2-.5,2.3-.3,3.3.4,1.8,1.8,3.2,4.3,4.1,1.1.4,2.1.6,3.2.7,2,.1,3.2-.7,3.8-2.2.5-1.2.4-2.1-.1-2.9-.6-.8-1.5-1.6-3-2.6l-2.6-1.8c-1.7-1.2-2.9-2.1-3.5-3-1-1.4-1.2-3-.5-4.8.7-1.9,2-3.2,3.8-4,1.8-.7,3.9-.6,6.4.3,2.2.9,3.9,2.1,5.1,3.8,1.1,1.7,1.3,3.7.3,6.1l-2.7-1.1c.3-1.2.3-2.2.1-3-.5-1.5-1.7-2.6-3.9-3.4-1.7-.7-3.1-.8-4.1-.3-1,.4-1.7,1.1-2.1,2.1s-.3,2,.4,2.8c.5.5,1.6,1.4,3.4,2.7l2.7,1.8c1.3.9,2.3,1.8,2.8,2.7,1,1.5,1.1,3.2.4,5.1-.9,2.4-2.4,3.7-4.6,4.1-2.1.4-4.3.1-6.6-.8-2.7-1-4.5-2.5-5.5-4.5-1-1.9-1-4-.1-6.4l2.9,1.2Z"/>
      <path class="cls-2" d="m307.3,57.6l-1.5,2.3-6.5-4.2-11.1,16.9-2.6-1.7,11.1-16.9-6.5-4.2,1.5-2.3,15.6,10.1Z"/>
      <path class="cls-2" d="m314.2,63l12.5,11.1-1.9,2.1-10.2-9.1-4.6,5.2,9.5,8.4-1.8,2-9.5-8.4-5.2,5.8,10.4,9.3-1.8,2-12.6-11.3,15.2-17.1Z"/>
      <path class="cls-2" d="m337.9,86.5l2.2,2.7-12.3,21.1-2.2-2.6,3.8-6.2-5.8-7-6.9,2.5-2-2.5,23.2-8Zm-7.1,12.6l5.6-9.2-10.2,3.6,4.6,5.6Z"/>
      <path class="cls-2" d="m350.6,102.7l2.2,3.8-13.5,15.5,20.1-4.1,2.2,3.8-19.8,11.5-1.5-2.6,11.7-6.8c.4-.2,1.1-.6,2-1.1s2-1.1,3-1.7l-20,4.1-1.5-2.7,13.4-15.4-.6.4c-.5.3-1.2.7-2.2,1.3-1,.6-1.7,1-2.2,1.3l-11.7,6.8-1.5-2.6,19.9-11.5Z"/>
    </g>
  </g>
</svg>