<svg width="223" height="63" viewBox="0 0 223 63" fill="none" xmlns="http://www.w3.org/2000/svg">
<path fill-rule="evenodd" clip-rule="evenodd" d="M81.9028 15.1345C84.8106 15.1345 87.1318 14.191 87.7439 11.4751C88.3561 8.75932 86.4685 8.26208 83.548 8.26208H82.1833L80.6402 15.1345H81.9028ZM69.2386 0.0380859H91.774C99.949 0.0380859 104.234 2.39692 102.704 9.21835C101.773 13.375 99.222 16.537 93.2279 17.8503V17.9523C96.8627 18.2456 98.5206 19.8011 98.6354 22.568C98.7884 25.6791 97.5386 30.7919 98.0615 36.2618H83.3057C83.2244 32.7926 83.365 29.3216 83.7265 25.8703C83.8158 24.0725 83.0251 23.3202 80.5892 23.3202H78.8547L75.9724 36.2108H61.1912L69.2386 0.0380859Z" fill="#CE1126"/>
<path fill-rule="evenodd" clip-rule="evenodd" d="M107.04 38.2893L102.066 11.3096H115.751L116.363 25.7175H116.465L123.135 11.3096H136.067L115.457 47.5333H101.428L107.04 38.2893Z" fill="#CE1126"/>
<path fill-rule="evenodd" clip-rule="evenodd" d="M150.568 20.1711C150.614 19.8671 150.592 19.5565 150.502 19.2623C150.412 18.9681 150.258 18.6978 150.05 18.4714C149.842 18.2449 149.585 18.0682 149.3 17.9541C149.014 17.84 148.706 17.7915 148.399 17.8122C145.849 17.8122 144.994 20.069 144.127 24.1874C143.387 27.681 143.081 30.5626 145.747 30.5626C146.256 30.5828 146.762 30.4656 147.211 30.2234C147.659 29.9811 148.035 29.6227 148.297 29.1856C149.088 27.62 149.618 25.9361 149.866 24.2002C150.239 22.8851 150.474 21.5348 150.568 20.1711ZM148.336 34.0817C147.217 35.2926 145.854 36.2527 144.338 36.8988C142.821 37.545 141.184 37.8624 139.536 37.8303C133.274 37.8303 129.843 33.0107 131.782 23.8687C133.848 14.1146 139.587 10.519 145.186 10.519C148.055 10.519 150.593 11.3478 152.162 13.6557L155.057 0H167.466L159.597 37.0653H147.902L148.336 34.0817Z" fill="#CE1126"/>
<path fill-rule="evenodd" clip-rule="evenodd" d="M184.415 20.9999L184.492 20.6301C185.028 18.1693 183.994 16.8815 181.941 16.8815C180.897 16.8799 179.889 17.2603 179.107 17.9509C178.324 18.6415 177.822 19.5945 177.694 20.6301L177.605 20.9999H184.415ZM193.904 28.8158C191.672 34.681 186.379 37.8686 176.444 37.8686C168.678 37.8686 162.416 34.477 164.724 24.0344C166.662 15.1092 173.855 10.5063 183.37 10.5063C193.419 10.5063 197.131 15.4917 195.128 24.6975L194.746 26.4443H176.457L176.291 27.222C175.641 30.2056 176.406 31.4934 178.944 31.4934C179.767 31.4757 180.566 31.2109 181.237 30.7334C181.908 30.256 182.42 29.5878 182.706 28.8158H193.904Z" fill="#CE1126"/>
<path fill-rule="evenodd" clip-rule="evenodd" d="M211.797 11.0926L210.522 16.9832H210.624C212.97 13.2984 216.133 10.5061 220.189 10.5061C220.877 10.4938 221.563 10.5753 222.229 10.7483L219.959 21.1654C219.041 20.8692 218.079 20.7355 217.115 20.7701C215.207 20.8974 213.39 21.6339 211.932 22.8711C210.474 24.1083 209.452 25.7809 209.017 27.6425L206.887 37.065H194.044L199.707 11.0926H211.797Z" fill="#CE1126"/>
<path fill-rule="evenodd" clip-rule="evenodd" d="M61.6758 3.17459C49.6493 5.39315 39.4847 8.98874 32.6106 13.4514L58.2068 19.2145L57.837 20.9613L0 7.91772H36.4112C44.6426 4.76385 53.2377 2.65627 61.9947 1.64453L61.6758 3.17459Z" fill="#1A1919"/>
<path fill-rule="evenodd" clip-rule="evenodd" d="M108.876 58.7029L112.702 51.8815C105.289 52.8981 97.8152 53.4051 90.3327 53.3988C53.3476 53.3988 23.4152 41.5537 23.4152 26.9163C23.4152 23.2569 25.29 19.7633 28.6824 16.5885L23.0199 15.3135C17.0895 19.9546 13.6843 25.3735 13.6843 31.1749C13.6843 48.1966 43.0173 62.0052 79.2627 62.0052C89.2277 62.0384 99.1636 60.9303 108.876 58.7029Z" fill="#1A1919"/>
</svg>
