<svg width="107" height="91" viewBox="0 0 107 91" fill="none" xmlns="http://www.w3.org/2000/svg">
<path d="M65.0676 60.2511C63.9195 65.6004 57.557 76.4612 54.8553 81H71.5516C71.5516 81 97.0014 57.6575 97.0014 35.9361C97.0014 17.7808 83.0473 10 72.3487 10C55.0712 10 45.8881 23.1081 46.2506 35.9361C46.592 48.0213 51.1136 55.8744 65.0676 60.2511Z" fill="#E43292"/>
<g style="mix-blend-mode:multiply">
<path d="M29.0805 60.2512C27.4595 66.2488 21.57 76.4612 18.8683 81H35.5645C35.5645 81 60.1904 58.9543 61.0144 35.9361C61.6004 19.5639 46.2365 10.1621 36.5238 10.1621C18.8683 10.1621 10.0546 23.4543 10.0546 35.9361C9.92281 47.5903 16.9097 57.3333 29.0805 60.2512Z" fill="#00B9E8"/>
</g>
<mask id="mask0_357_4746" style="mask-type:alpha" maskUnits="userSpaceOnUse" x="46" y="10" width="51" height="71">
<path d="M65.0656 60.2511C63.9175 65.6004 57.555 76.4612 54.8534 81H71.5497C71.5497 81 96.9995 57.6575 96.9995 35.9361C96.9995 17.7808 83.0454 10 72.3467 10C55.0692 10 45.8862 23.1081 46.2486 35.9361C46.5901 48.0213 51.1116 55.8744 65.0656 60.2511Z" fill="#E43292"/>
</mask>
<g mask="url(#mask0_357_4746)">
<g style="mix-blend-mode:multiply">
<path d="M29.0786 60.2512C27.4576 66.2488 21.568 76.4612 18.8664 81H35.5626C35.5626 81 60.1884 58.9543 61.0124 35.9361C61.5985 19.5639 46.2345 10.1621 36.5218 10.1621C18.8664 10.1621 10.0526 23.4543 10.0526 35.9361C9.92086 47.5903 16.9077 57.3333 29.0786 60.2512Z" fill="#7176BD"/>
</g>
</g>
<path fill-rule="evenodd" clip-rule="evenodd" d="M53.7051 22.7783C54.2574 22.7783 54.7051 23.226 54.7051 23.7783L54.7051 48.0934C54.7051 48.6457 54.2574 49.0934 53.7051 49.0934C53.1528 49.0934 52.7051 48.6457 52.7051 48.0934L52.7051 23.7783C52.7051 23.226 53.1528 22.7783 53.7051 22.7783Z" fill="white"/>
<circle cx="27.6073" cy="28.4793" r="2.75571" fill="white"/>
<circle cx="27.6073" cy="35.9364" r="2.75571" fill="white"/>
<circle cx="27.6073" cy="43.3924" r="2.75571" fill="white"/>
<circle cx="35.0643" cy="28.4793" r="2.75571" fill="white"/>
<circle cx="35.0643" cy="35.9364" r="2.75571" fill="white"/>
<circle cx="35.0643" cy="43.3924" r="2.75571" fill="white"/>
<circle cx="42.5213" cy="28.4793" r="2.75571" fill="white"/>
<circle cx="42.5213" cy="35.9364" r="2.75571" fill="white"/>
<circle cx="42.5213" cy="43.3924" r="2.75571" fill="white"/>
<circle cx="64.8905" cy="28.4793" r="2.75571" fill="white"/>
<circle cx="64.8905" cy="35.9364" r="2.75571" fill="white"/>
<circle cx="64.8905" cy="43.3924" r="2.75571" fill="white"/>
<circle cx="72.3475" cy="28.4793" r="2.75571" fill="white"/>
<circle cx="72.3475" cy="35.9364" r="2.75571" fill="white"/>
<circle cx="72.3475" cy="43.3924" r="2.75571" fill="white"/>
<circle cx="79.8026" cy="28.4793" r="2.75571" fill="white"/>
<circle cx="79.8026" cy="35.9364" r="2.75571" fill="white"/>
<circle cx="79.8026" cy="43.3924" r="2.75571" fill="white"/>
</svg>
