<svg width="71" height="72" viewBox="0 0 71 72" fill="none" xmlns="http://www.w3.org/2000/svg">
<rect x="43.2422" y="28" width="16" height="16" transform="rotate(90 43.2422 28)" fill="white" fill-opacity="0.01"/>
<path fill-rule="evenodd" clip-rule="evenodd" d="M42.4245 36.3657C42.5182 36.2722 42.5762 36.143 42.5762 36.0003C42.5762 35.8574 42.5182 35.7282 42.4245 35.6347L35.6077 28.8182C35.406 28.6166 35.0792 28.6166 34.8775 28.8182C34.7766 28.9191 34.7261 29.0513 34.7261 29.1833C34.7261 29.3155 34.7766 29.4476 34.8775 29.5485L40.813 35.4838L28.4256 35.4838C28.1406 35.4838 27.9093 35.715 27.9093 36.0003C27.9093 36.2855 28.1406 36.5166 28.4256 36.5166L40.813 36.5166L34.8775 42.4521C34.6757 42.6539 34.6757 42.9806 34.8775 43.1824C35.0792 43.3842 35.406 43.3842 35.6077 43.1824L42.4245 36.3657Z" fill="#383838"/>
<path fill-rule="evenodd" clip-rule="evenodd" d="M42.8953 35.163C43.1088 35.3763 43.2422 35.673 43.2422 36C43.2422 36.3269 43.1087 36.6236 42.8953 36.8368C42.8953 36.8369 42.8952 36.8369 42.8952 36.8369C42.8951 36.837 42.895 36.8371 42.8949 36.8372L36.0785 43.6535C35.6164 44.1156 34.8675 44.1156 34.4054 43.6535C33.9433 43.1914 33.9433 42.4425 34.4054 41.9804L39.2029 37.183L28.425 37.183C27.7719 37.183 27.242 36.6535 27.242 36C27.242 35.3465 27.7718 34.8169 28.425 34.8169L39.2028 34.8169L34.4054 30.0196L34.4054 30.0196C34.1746 29.7888 34.0588 29.485 34.0588 29.183C34.0588 28.8812 34.1746 28.5773 34.4054 28.3465L34.4056 28.3463C34.8677 27.8846 35.6162 27.8846 36.0783 28.3463L36.0785 28.3465L42.8949 35.1626C42.895 35.1627 42.8952 35.1629 42.8953 35.163Z" fill="#383838"/>
<rect x="35.2422" y="1.46492" width="48.8405" height="48.8405" rx="24.4202" transform="rotate(45 35.2422 1.46492)" stroke="black"/>
</svg>
