<svg width="205" height="24" viewBox="0 0 205 24" fill="none" xmlns="http://www.w3.org/2000/svg">
<path fill-rule="evenodd" clip-rule="evenodd" d="M200.473 20.6266C199.652 20.9057 198.79 21.0426 197.924 21.0313C196.531 21.0544 195.148 20.8075 193.85 20.3041C192.93 19.9429 192.057 19.474 191.249 18.9064L193.035 17.1215C193.618 17.6013 194.274 17.9856 194.979 18.2605C195.439 18.4498 195.921 18.5825 196.414 18.6557C196.772 18.7095 197.133 18.7393 197.496 18.7454C197.993 18.7501 198.489 18.6821 198.966 18.5428C199.391 18.4201 199.793 18.2307 200.158 17.9833C200.882 17.4847 201.307 16.6564 201.291 15.7781C201.29 15.2035 201.071 14.6501 200.678 14.2303C200.363 13.8776 199.976 13.5952 199.544 13.403C199.175 13.1986 198.785 13.0347 198.381 12.9138C198.002 12.7996 197.661 12.6961 197.383 12.6097C197.261 12.5611 197.132 12.5262 197.002 12.5059L196.956 12.4459L196.72 12.3987C196.329 12.2863 195.759 12.088 195.025 11.8089C194.265 11.5152 193.541 11.1365 192.865 10.6808C191.236 9.5896 190.444 8.29768 190.444 6.73048C190.415 5.81348 190.601 4.90215 190.987 4.07015C191.322 3.38877 191.805 2.79145 192.402 2.32209C192.984 1.87209 193.65 1.54203 194.36 1.34985C195.065 1.15436 195.793 1.05331 196.525 1.04906C197.65 1.02073 198.773 1.1775 199.848 1.51323C200.593 1.75688 201.313 2.06994 202 2.44817C202.238 2.58794 202.465 2.74423 202.682 2.91611C202.727 2.95296 202.771 2.98916 202.814 3.02441C202.835 3.0411 202.855 3.05758 202.875 3.07382L201.026 4.94512C200.609 4.55887 200.141 4.23211 199.636 3.97335C198.423 3.36564 197.035 3.20415 195.715 3.51768C195.329 3.61023 194.956 3.75094 194.604 3.93557C193.722 4.39643 193.166 5.30634 193.158 6.3022C193.147 6.8863 193.366 7.45199 193.769 7.87554C194.093 8.23205 194.48 8.52481 194.911 8.73824C195.3 8.94222 195.709 9.1056 196.13 9.22554L197.256 9.54332L197.546 9.61179C197.648 9.65287 197.842 9.7152 198.128 9.79642C198.433 9.88802 198.732 9.9971 199.025 10.1232C199.381 10.2733 199.768 10.4509 200.188 10.6558C200.613 10.8655 201.023 11.1049 201.414 11.3731C203.156 12.5229 204.003 13.8233 204.003 15.3499C204.015 16.162 203.87 16.9695 203.576 17.7269C203.311 18.3979 202.901 19.0023 202.376 19.4967C201.825 19.9991 201.178 20.3839 200.473 20.6266ZM39.7248 16.5304C39.1072 17.0909 38.397 17.5399 37.6259 17.8572C35.8151 18.5768 33.7974 18.5768 31.9866 17.8572C31.0927 17.4884 30.2815 16.9445 29.6015 16.257C28.9107 15.5713 28.3625 14.7563 27.9881 13.8582C27.616 12.9644 27.4262 12.0053 27.429 11.0373C27.4257 10.0727 27.6155 9.11741 27.989 8.2278C29.5184 4.47481 33.8003 2.67245 37.5532 4.20236C38.3517 4.5277 39.0859 4.99092 39.7234 5.57124L41.5871 3.70703C40.7339 2.92083 39.7536 2.28525 38.6869 1.82675C36.1994 0.785098 33.3984 0.78557 30.9105 1.8277C28.5065 2.83866 26.5937 4.75104 25.5832 7.15545C24.5406 9.63824 24.5406 12.436 25.5832 14.9188C27.7147 20.0029 33.5642 22.3955 38.6482 20.264C39.731 19.8097 40.7249 19.168 41.5848 18.3686L39.7248 16.5304ZM63.8986 20.6767L55.2391 1.494H51.9867L43.3277 20.6767H46.2199L47.7606 17.2519H55.6797L54.4969 14.6242H48.9425L53.6134 4.2955L61.0065 20.6767H63.8986ZM80.5951 1.494V20.6758H77.5112L68.8635 5.93494V20.6758H66.2362V1.494H69.3201L77.9669 16.2348V1.494H80.5951ZM97.7268 20.6758V1.494H95.0986V16.2348L86.4509 1.494H83.3675V20.6758H85.9952V5.93494L94.6429 20.6758H97.7268ZM111.913 1.494L120.573 20.6767H117.681L110.288 4.2955L105.617 14.6242H111.171L112.354 17.2519H104.435L102.894 20.6767H100.002L108.661 1.494H111.913ZM122.911 1.5438V20.6974H133.387V18.0701H125.538V1.5438H122.911ZM138.694 10.8934L144.594 1.494H147.706L140.385 13.1524L140.008 13.7364V20.6767H137.38V13.7388L129.683 1.494H132.794L138.694 10.8934ZM164.062 1.494H149.703V4.1222H155.583V20.6767H158.21V4.1222H164.062V1.494ZM166.536 1.54386H169.164V20.6974H166.536V1.54386ZM186.638 16.5304C186.021 17.0909 185.31 17.5399 184.539 17.8572C182.729 18.5768 180.71 18.5768 178.9 17.8572C178.006 17.4884 177.195 16.9445 176.515 16.257C175.824 15.5718 175.276 14.7563 174.902 13.8582C174.529 12.9644 174.34 12.0053 174.342 11.0373C174.339 10.0731 174.529 9.11741 174.902 8.2278C176.431 4.47481 180.714 2.67245 184.466 4.20236C185.265 4.5277 185.999 4.99092 186.636 5.57124L188.5 3.70703C187.647 2.92083 186.667 2.28525 185.6 1.82675C183.112 0.785098 180.311 0.78557 177.824 1.8277C175.42 2.83866 173.507 4.75104 172.496 7.15545C171.454 9.63824 171.454 12.436 172.496 14.9188C174.628 20.0029 180.477 22.3955 185.561 20.264C186.644 19.8097 187.638 19.168 188.498 18.3686L186.638 16.5304Z" fill="#4D5A31"/>
<path d="M17.4342 3.68313L10.7012 0.0637733C10.5393 -0.0254711 10.3414 -0.0207487 10.1842 0.0760508C10.0241 0.169545 9.92682 0.341423 9.92824 0.526523V3.45034L14.1619 5.72584C16.4875 6.97337 17.9376 9.3995 17.9357 12.0386V16.7043L19.8107 17.8215C20.0601 17.9703 20.3816 17.889 20.5308 17.6402C20.579 17.559 20.605 17.466 20.605 17.3711V8.98774C20.6069 6.77033 19.3881 4.7314 17.4342 3.68313Z" fill="#4D5A31"/>
<path d="M15.6406 12.0241C15.6429 9.80623 14.4242 7.76778 12.4698 6.71904L5.73733 3.10062C5.48235 2.96321 5.16409 3.0586 5.02668 3.31405C4.98608 3.39008 4.96436 3.47554 4.96436 3.56243V6.48577L9.19801 8.76174C11.5235 10.0093 12.9741 12.4354 12.9722 15.0745V19.7402L14.8468 20.8579C15.0957 21.0067 15.4177 20.9254 15.5664 20.6766C15.6151 20.5949 15.6406 20.5019 15.6406 20.407V12.0241Z" fill="#8B8D4A"/>
<path d="M10.6762 15.0922C10.6781 12.8743 9.45986 10.8353 7.50546 9.78708L2.69904 7.20372C5.10201 8.93147 8.15142 12.3964 7.57676 18.6841C7.56685 18.6841 7.55787 18.6874 7.54938 18.6926L7.5489 18.6936L7.53804 18.6983C7.5286 18.7025 7.51868 18.7068 7.50877 18.7106C7.58715 15.8259 6.7764 10.2404 0 7.17114V14.6138C0.00519409 16.734 1.12051 18.6969 2.93891 19.7871L9.88247 23.9259C10.1318 24.0742 10.4533 23.993 10.6021 23.7446C10.6507 23.6629 10.6762 23.5699 10.6762 23.475V15.0922Z" fill="#C0BB87"/>
</svg>
