<svg width="32" height="32" viewBox="0 0 32 32" fill="none" xmlns="http://www.w3.org/2000/svg">
<path d="M20.2452 21.4934C19.8227 23.462 17.4812 27.459 16.4869 29.1294H22.6315C22.6315 29.1294 31.9975 20.5389 31.9975 12.545C31.9975 5.86349 26.8621 3 22.9248 3C16.5664 3 13.1868 7.82403 13.3202 12.545C13.4459 16.9926 15.1099 19.8827 20.2452 21.4934Z" fill="#E43292"/>
<path d="M7.00259 21.4943C6.40604 23.7016 4.23857 27.4599 3.24431 29.1303H9.38884C9.38884 29.1303 18.4516 21.017 18.7549 12.5459C18.9706 6.5206 13.3163 3.06055 9.74187 3.06055C3.24431 3.06055 0.000673617 7.95234 0.000673617 12.5459C-0.0478135 16.8349 2.52348 20.4205 7.00259 21.4943Z" fill="#00B9E8"/>
<mask id="mask0_1831_60327" style="mask-type:alpha" maskUnits="userSpaceOnUse" x="13" y="3" width="19" height="27">
<path d="M20.2472 21.4934C19.8247 23.462 17.4831 27.459 16.4889 29.1294H22.6334C22.6334 29.1294 31.9995 20.5389 31.9995 12.545C31.9995 5.86349 26.8641 3 22.9268 3C16.5683 3 13.1888 7.82403 13.3222 12.545C13.4478 16.9926 15.1118 19.8827 20.2472 21.4934Z" fill="#E43292"/>
</mask>
<g mask="url(#mask0_1831_60327)">
<g style="mix-blend-mode:multiply">
<path d="M7.00455 21.4943C6.40799 23.7016 4.24053 27.4599 3.24626 29.1303H9.3908C9.3908 29.1303 18.4536 21.017 18.7568 12.5459C18.9725 6.5206 13.3183 3.06055 9.74382 3.06055C3.24626 3.06055 0.00262674 7.95234 0.00262674 12.5459C-0.0458604 16.8349 2.52544 20.4205 7.00455 21.4943Z" fill="#7176BD"/>
</g>
</g>
<path fill-rule="evenodd" clip-rule="evenodd" d="M16.0653 7.69922C16.2685 7.69922 16.4333 7.86399 16.4333 8.06724L16.4333 17.0156C16.4333 17.2189 16.2685 17.3837 16.0653 17.3837C15.862 17.3837 15.6973 17.2189 15.6973 17.0156L15.6973 8.06724C15.6973 7.86399 15.862 7.69922 16.0653 7.69922Z" fill="white"/>
<circle cx="6.45751" cy="9.79736" r="1.01415" fill="white"/>
<circle cx="6.45751" cy="12.5435" r="1.01415" fill="white"/>
<circle cx="6.45751" cy="15.2837" r="1.01415" fill="white"/>
<circle cx="9.20361" cy="9.79736" r="1.01415" fill="white"/>
<circle cx="9.20361" cy="12.5435" r="1.01415" fill="white"/>
<circle cx="9.20361" cy="15.2837" r="1.01415" fill="white"/>
<circle cx="11.9438" cy="9.79736" r="1.01415" fill="white"/>
<circle cx="11.9438" cy="12.5435" r="1.01415" fill="white"/>
<circle cx="11.9438" cy="15.2837" r="1.01415" fill="white"/>
<circle cx="20.1782" cy="9.79736" r="1.01415" fill="white"/>
<circle cx="20.1782" cy="12.5435" r="1.01415" fill="white"/>
<circle cx="20.1782" cy="15.2837" r="1.01415" fill="white"/>
<circle cx="22.9243" cy="9.79736" r="1.01415" fill="white"/>
<circle cx="22.9243" cy="12.5435" r="1.01415" fill="white"/>
<circle cx="22.9243" cy="15.2837" r="1.01415" fill="white"/>
<circle cx="25.6645" cy="9.79736" r="1.01415" fill="white"/>
<circle cx="25.6645" cy="12.5435" r="1.01415" fill="white"/>
<circle cx="25.6645" cy="15.2837" r="1.01415" fill="white"/>
</svg>
