<svg width="874" height="549" viewBox="0 0 874 549" fill="none" xmlns="http://www.w3.org/2000/svg">
<g clip-path="url(#clip0_2585_57431)">
<rect width="874" height="761" fill="#FFEDEF"/>
<mask id="mask0_2585_57431" style="mask-type:luminance" maskUnits="userSpaceOnUse" x="446" y="248" width="289" height="65">
<path fill-rule="evenodd" clip-rule="evenodd" d="M446.135 248H734.833V313H446.135V248Z" fill="white"/>
</mask>
<g mask="url(#mask0_2585_57431)">
<path fill-rule="evenodd" clip-rule="evenodd" d="M503.059 306.313V280.845H479.857V287.334H495.39V302.478C492.145 304.74 487.034 306.216 480.642 306.216C466.978 306.216 454.295 297.168 454.295 280.746C454.295 264.226 467.272 255.178 480.545 255.178C487.23 255.178 493.522 257.244 498.046 260.095L499.617 252.917C494.899 249.967 488.017 248 479.661 248C463.438 248 446.135 259.505 446.135 280.548C446.135 301.199 462.947 313.001 480.151 313.001C489.591 313.001 497.063 310.935 503.059 306.313ZM572.863 249.179H564.507L551.429 267.568C549.562 270.224 547.105 273.862 545.237 276.812H545.04C543.172 273.862 540.812 270.421 538.846 267.568L525.769 249.179H516.922L540.909 283.007V311.918H548.776V283.007L572.863 249.179ZM643.748 280.548C643.748 260.489 627.624 249.179 609.435 249.179H591.541V311.918H609.435C627.624 311.918 643.748 300.61 643.748 280.548ZM635.488 280.647C635.488 296.971 623.397 305.134 608.059 305.134H599.701V256.162H608.059C623.397 256.162 635.488 264.324 635.488 280.647ZM700.966 311.918V304.936H672.258V283.892H693.199V276.911H672.258V256.162H697.427V249.179H664.197V311.918H700.966ZM734.833 260.508L733.908 249.09H732.55L728.539 257.299L724.407 249.09H723.049L722.124 260.508H724.035L724.592 253.657L728.047 260.57H728.726L732.305 253.596L732.86 260.508H734.833ZM721.383 250.88V249.09H712.683V250.88H716.077V260.508H717.989V250.88H721.383Z" fill="#808184"/>
</g>
<path fill-rule="evenodd" clip-rule="evenodd" d="M185.798 311.918L164.07 282.516C170.657 280.255 175.77 274.747 175.77 266.488C175.77 255.178 166.331 249.179 157.089 249.179H139V311.918H146.963V283.794H155.516L175.77 311.918H185.798ZM167.511 266.684C167.511 273.567 162.005 277.107 155.811 277.107H146.963V256.162H155.714C162.005 256.162 167.511 259.899 167.511 266.684ZM245.77 249.179H237.414L224.337 267.568C222.469 270.224 220.012 273.862 218.143 276.812H217.947C216.078 273.862 213.72 270.421 211.753 267.568L198.678 249.179H189.828L213.818 283.007V311.918H221.682V283.007L245.77 249.179ZM316.654 280.548C316.654 260.489 300.531 249.179 282.342 249.179H264.449V311.918H282.342C300.531 311.918 316.654 300.61 316.654 280.548ZM308.396 280.647C308.396 296.972 296.303 305.134 280.966 305.134H272.609V256.162H280.966C296.303 256.162 308.396 264.323 308.396 280.647ZM373.873 311.918V304.936H345.166V283.892H366.107V276.911H345.166V256.162H370.334V249.179H337.103V311.918H373.873ZM437.678 311.918L415.952 282.516C422.537 280.255 427.651 274.747 427.651 266.488C427.651 255.178 418.213 249.179 408.971 249.179H390.88V311.918H398.844V283.794H407.397L427.651 311.918H437.678ZM419.392 266.684C419.392 273.567 413.887 277.107 407.693 277.107H398.844V256.162H407.594C413.887 256.162 419.392 259.899 419.392 266.684Z" fill="#CE1126"/>
<g clip-path="url(#clip1_2585_57431)">
<path d="M52.816 40.458C52.816 40.842 52.88 41.178 53.024 41.434C53.152 41.706 53.344 41.93 53.568 42.09C53.792 42.25 54.064 42.378 54.384 42.458C54.688 42.538 55.008 42.57 55.344 42.57C55.568 42.57 55.808 42.554 56.064 42.522C56.32 42.49 56.56 42.41 56.784 42.298C57.008 42.202 57.184 42.058 57.344 41.866C57.488 41.674 57.568 41.434 57.568 41.146C57.568 40.842 57.456 40.586 57.264 40.394C57.072 40.202 56.816 40.042 56.496 39.914C56.176 39.786 55.808 39.674 55.408 39.578C54.992 39.482 54.592 39.386 54.176 39.258C53.744 39.162 53.328 39.034 52.928 38.874C52.512 38.714 52.16 38.522 51.84 38.266C51.52 38.026 51.248 37.722 51.056 37.354C50.864 36.986 50.768 36.538 50.768 36.01C50.768 35.434 50.88 34.922 51.136 34.49C51.392 34.058 51.712 33.69 52.128 33.402C52.528 33.114 52.992 32.906 53.504 32.762C54.016 32.634 54.528 32.554 55.04 32.554C55.632 32.554 56.208 32.634 56.752 32.762C57.296 32.89 57.792 33.114 58.224 33.402C58.64 33.706 58.976 34.09 59.232 34.554C59.488 35.018 59.616 35.578 59.616 36.234H57.184C57.152 35.898 57.088 35.626 56.96 35.386C56.832 35.162 56.672 34.986 56.48 34.858C56.272 34.746 56.032 34.65 55.776 34.586C55.52 34.538 55.232 34.522 54.928 34.506C54.72 34.506 54.512 34.538 54.32 34.57C54.112 34.618 53.92 34.698 53.76 34.794C53.6 34.906 53.456 35.034 53.36 35.194C53.248 35.354 53.2 35.562 53.2 35.802C53.2 36.026 53.232 36.218 53.328 36.346C53.408 36.49 53.568 36.618 53.824 36.73C54.08 36.858 54.416 36.97 54.864 37.082C55.312 37.21 55.888 37.354 56.608 37.53C56.816 37.578 57.104 37.658 57.488 37.77C57.872 37.882 58.24 38.058 58.624 38.298C58.992 38.554 59.312 38.874 59.584 39.29C59.856 39.706 60 40.218 60 40.858C60 41.386 59.888 41.866 59.696 42.314C59.488 42.762 59.184 43.162 58.784 43.482C58.384 43.802 57.888 44.058 57.296 44.234C56.704 44.426 56.016 44.506 55.248 44.506C54.608 44.506 54 44.442 53.408 44.282C52.816 44.122 52.288 43.882 51.84 43.546C51.392 43.226 51.024 42.794 50.768 42.282C50.496 41.77 50.368 41.162 50.384 40.458H52.816ZM63.6546 35.978H65.3186V37.498H63.6546V41.594C63.6546 41.978 63.7186 42.234 63.8466 42.362C63.9746 42.49 64.2306 42.554 64.6146 42.554C64.7426 42.57 64.8546 42.554 64.9826 42.538C65.0946 42.538 65.2066 42.522 65.3186 42.49V44.25C65.1266 44.282 64.9026 44.314 64.6786 44.314C64.4386 44.33 64.2146 44.33 63.9906 44.33C63.6386 44.33 63.3026 44.314 62.9826 44.266C62.6626 44.218 62.3906 44.122 62.1506 43.978C61.9106 43.85 61.7186 43.642 61.5906 43.386C61.4466 43.13 61.3826 42.794 61.3826 42.378V37.498H60.0066V35.978H61.3826V33.498H63.6546V35.978ZM65.9196 35.978H68.0796V37.514H68.1116C68.2076 37.274 68.3516 37.034 68.5436 36.81C68.7196 36.586 68.9276 36.41 69.1676 36.25C69.3916 36.09 69.6476 35.978 69.9196 35.882C70.1756 35.802 70.4636 35.77 70.7516 35.754C70.8956 35.754 71.0556 35.786 71.2476 35.834V37.946C71.1356 37.93 71.0076 37.914 70.8636 37.898C70.7036 37.882 70.5596 37.866 70.4316 37.866C70.0156 37.866 69.6636 37.946 69.3756 38.074C69.0876 38.218 68.8476 38.41 68.6716 38.65C68.4956 38.89 68.3676 39.162 68.3036 39.482C68.2236 39.802 68.1916 40.154 68.1916 40.522V44.25H65.9196V35.978ZM71.5624 38.522C71.5944 37.994 71.7224 37.546 71.9624 37.194C72.1864 36.842 72.4904 36.57 72.8584 36.346C73.2104 36.138 73.6264 35.994 74.0744 35.898C74.5224 35.802 74.9864 35.754 75.4504 35.754C75.8664 35.754 76.2824 35.786 76.7144 35.85C77.1304 35.914 77.5304 36.026 77.8824 36.186C78.2344 36.362 78.5224 36.602 78.7464 36.906C78.9704 37.21 79.0824 37.61 79.0824 38.106V42.41C79.0824 42.794 79.0984 43.146 79.1464 43.482C79.1784 43.834 79.2584 44.09 79.3704 44.25H77.0664C77.0184 44.122 76.9864 43.994 76.9544 43.866C76.9224 43.738 76.9064 43.594 76.9064 43.45C76.5384 43.834 76.1064 44.09 75.6264 44.234C75.1304 44.394 74.6344 44.458 74.1224 44.458C73.7224 44.458 73.3544 44.41 73.0184 44.314C72.6664 44.218 72.3784 44.074 72.1224 43.866C71.8664 43.674 71.6584 43.418 71.5144 43.098C71.3704 42.794 71.3064 42.426 71.3064 41.994C71.3064 41.53 71.3864 41.146 71.5464 40.842C71.7064 40.538 71.9304 40.298 72.1864 40.106C72.4424 39.93 72.7464 39.802 73.0824 39.706C73.4184 39.61 73.7544 39.546 74.1064 39.482C74.4424 39.434 74.7784 39.386 75.1144 39.354C75.4344 39.322 75.7384 39.274 75.9944 39.21C76.2504 39.162 76.4424 39.066 76.6024 38.938C76.7464 38.81 76.8104 38.634 76.8104 38.394C76.8104 38.154 76.7624 37.962 76.6824 37.818C76.6024 37.674 76.4904 37.562 76.3624 37.482C76.2344 37.402 76.0744 37.354 75.8984 37.322C75.7224 37.29 75.5304 37.29 75.3384 37.274C74.8904 37.274 74.5384 37.37 74.2824 37.562C74.0264 37.754 73.8664 38.074 73.8344 38.522H71.5624ZM76.8104 40.202C76.7144 40.298 76.5864 40.362 76.4424 40.41C76.2984 40.458 76.1384 40.49 75.9784 40.522C75.8184 40.554 75.6424 40.586 75.4664 40.602C75.2744 40.634 75.0984 40.65 74.9224 40.682C74.7464 40.714 74.5704 40.762 74.4104 40.81C74.2504 40.874 74.1064 40.938 73.9784 41.034C73.8504 41.13 73.7544 41.242 73.6904 41.37C73.6104 41.514 73.5784 41.69 73.5784 41.898C73.5784 42.106 73.6104 42.282 73.6904 42.41C73.7544 42.554 73.8664 42.666 73.9944 42.746C74.1224 42.826 74.2664 42.874 74.4424 42.906C74.6024 42.938 74.7784 42.954 74.9704 42.954C75.4184 42.954 75.7544 42.89 76.0104 42.73C76.2504 42.586 76.4264 42.41 76.5544 42.202C76.6664 41.994 76.7304 41.786 76.7624 41.562C76.7944 41.354 76.7944 41.178 76.8104 41.05V40.202ZM83.2459 35.978H84.9099V37.498H83.2459V41.594C83.2459 41.978 83.3099 42.234 83.4379 42.362C83.5659 42.49 83.8219 42.554 84.2059 42.554C84.3339 42.57 84.4459 42.554 84.5739 42.538C84.6859 42.538 84.7979 42.522 84.9099 42.49V44.25C84.7179 44.282 84.4939 44.314 84.2699 44.314C84.0299 44.33 83.8059 44.33 83.5819 44.33C83.2299 44.33 82.8939 44.314 82.5739 44.266C82.2539 44.218 81.9819 44.122 81.7419 43.978C81.5019 43.85 81.3099 43.642 81.1819 43.386C81.0379 43.13 80.9739 42.794 80.9739 42.378V37.498H79.5979V35.978H80.9739V33.498H83.2459V35.978ZM91.0789 39.226C90.9669 38.65 90.7749 38.218 90.5029 37.914C90.2309 37.626 89.8149 37.482 89.2709 37.466C88.9029 37.466 88.5989 37.53 88.3589 37.658C88.1189 37.786 87.9269 37.93 87.7829 38.106C87.6389 38.298 87.5429 38.49 87.4789 38.682C87.4149 38.89 87.3829 39.066 87.3829 39.226H91.0789ZM87.3829 40.666C87.4149 41.402 87.5909 41.946 87.9429 42.266C88.2789 42.602 88.7749 42.762 89.4149 42.762C89.8629 42.762 90.2629 42.65 90.5989 42.426C90.9189 42.202 91.1269 41.946 91.2069 41.69H93.2069C92.8869 42.682 92.3909 43.402 91.7349 43.818C91.0629 44.25 90.2629 44.458 89.3349 44.458C88.6789 44.458 88.0869 44.362 87.5749 44.154C87.0469 43.946 86.5989 43.642 86.2469 43.258C85.8789 42.874 85.5909 42.426 85.3989 41.882C85.2069 41.354 85.1109 40.762 85.1109 40.122C85.1109 39.514 85.2069 38.938 85.4149 38.394C85.6069 37.866 85.8949 37.402 86.2789 37.018C86.6469 36.634 87.0949 36.314 87.6069 36.09C88.1189 35.866 88.6949 35.754 89.3349 35.754C90.0389 35.754 90.6469 35.898 91.1749 36.17C91.6869 36.442 92.1189 36.81 92.4549 37.258C92.7909 37.722 93.0309 38.25 93.1909 38.826C93.3349 39.418 93.3829 40.026 93.3509 40.666H87.3829ZM98.0744 42.298C98.3944 42.298 98.6664 42.234 98.9224 42.106C99.1624 41.978 99.3704 41.818 99.5304 41.594C99.6904 41.386 99.8024 41.146 99.8824 40.874C99.9624 40.602 100.01 40.314 100.01 40.01C100.01 39.674 99.9784 39.354 99.9144 39.05C99.8504 38.746 99.7384 38.474 99.5944 38.234C99.4344 38.01 99.2424 37.818 99.0024 37.674C98.7464 37.546 98.4424 37.482 98.0744 37.466C97.7544 37.466 97.4664 37.53 97.2424 37.658C97.0184 37.786 96.8264 37.962 96.6664 38.186C96.5064 38.41 96.3944 38.65 96.3304 38.938C96.2664 39.226 96.2344 39.514 96.2344 39.818C96.2344 40.122 96.2504 40.426 96.3144 40.714C96.3784 41.002 96.4744 41.274 96.6184 41.498C96.7624 41.738 96.9544 41.93 97.1944 42.074C97.4184 42.234 97.7224 42.298 98.0744 42.298ZM102.17 43.722C102.17 44.058 102.122 44.442 102.026 44.858C101.93 45.29 101.738 45.69 101.45 46.058C101.146 46.426 100.714 46.73 100.154 46.986C99.5784 47.242 98.8264 47.37 97.8824 47.37C97.4664 47.37 97.0504 47.322 96.6344 47.226C96.2184 47.13 95.8344 46.97 95.4824 46.746C95.1304 46.538 94.8424 46.266 94.6184 45.93C94.3944 45.594 94.2664 45.194 94.2344 44.714H96.4904C96.5864 45.146 96.7944 45.45 97.1144 45.61C97.4184 45.77 97.7704 45.85 98.1864 45.85C98.8264 45.85 99.2904 45.658 99.5784 45.274C99.8664 44.89 100.01 44.41 100.01 43.818V42.73H99.9784C99.7224 43.178 99.3704 43.498 98.9224 43.706C98.4744 43.914 97.9944 44.01 97.4984 44.01C96.8744 44.01 96.3464 43.914 95.8984 43.69C95.4504 43.466 95.0824 43.178 94.7944 42.794C94.5064 42.41 94.2824 41.978 94.1544 41.466C94.0264 40.954 93.9624 40.426 93.9624 39.85C93.9624 39.322 94.0264 38.81 94.1864 38.314C94.3464 37.818 94.5704 37.386 94.8744 37.002C95.1624 36.618 95.5304 36.314 95.9784 36.09C96.4264 35.866 96.9384 35.754 97.5144 35.754C98.0584 35.754 98.5224 35.866 98.9384 36.058C99.3544 36.266 99.6904 36.602 99.9784 37.082H100.01V35.978H102.17V43.722ZM107.6 45.274C107.344 45.946 107.008 46.426 106.576 46.714C106.128 47.002 105.52 47.146 104.752 47.146C104.512 47.146 104.272 47.146 104.048 47.13C103.824 47.114 103.584 47.098 103.36 47.066V45.194C103.568 45.226 103.792 45.242 104.016 45.258C104.24 45.29 104.464 45.29 104.688 45.274C104.976 45.242 105.2 45.13 105.344 44.922C105.488 44.73 105.568 44.506 105.568 44.25C105.568 44.074 105.536 43.898 105.472 43.738L102.576 35.978H104.992L106.864 41.642H106.896L108.704 35.978H111.056L107.6 45.274Z" fill="#949494"/>
</g>
<rect x="27.5" y="24.5" width="106" height="27" rx="13.5" stroke="#949494"/>
<path d="M179.116 42.138H181.356C181.708 42.138 182.06 42.09 182.412 41.962C182.748 41.85 183.052 41.658 183.324 41.386C183.58 41.114 183.804 40.762 183.964 40.314C184.124 39.882 184.204 39.354 184.204 38.714C184.204 38.138 184.14 37.626 184.028 37.162C183.916 36.698 183.74 36.298 183.484 35.962C183.228 35.642 182.876 35.386 182.46 35.21C182.044 35.034 181.516 34.938 180.908 34.938H179.116V42.138ZM176.604 32.826H181.532C182.268 32.826 182.94 32.954 183.58 33.178C184.22 33.418 184.764 33.77 185.228 34.234C185.692 34.714 186.06 35.29 186.316 35.994C186.572 36.698 186.7 37.53 186.716 38.474C186.716 39.306 186.604 40.074 186.396 40.778C186.172 41.482 185.852 42.09 185.42 42.602C184.988 43.114 184.444 43.53 183.804 43.818C183.164 44.106 182.396 44.25 181.532 44.25H176.604V32.826ZM193.311 39.226C193.199 38.65 193.007 38.218 192.735 37.914C192.463 37.626 192.047 37.482 191.503 37.466C191.135 37.466 190.831 37.53 190.591 37.658C190.351 37.786 190.159 37.93 190.015 38.106C189.871 38.298 189.775 38.49 189.711 38.682C189.647 38.89 189.615 39.066 189.615 39.226H193.311ZM189.615 40.666C189.647 41.402 189.823 41.946 190.175 42.266C190.511 42.602 191.007 42.762 191.647 42.762C192.095 42.762 192.495 42.65 192.831 42.426C193.151 42.202 193.359 41.946 193.439 41.69H195.439C195.119 42.682 194.623 43.402 193.967 43.818C193.295 44.25 192.495 44.458 191.567 44.458C190.911 44.458 190.319 44.362 189.807 44.154C189.279 43.946 188.831 43.642 188.479 43.258C188.111 42.874 187.823 42.426 187.631 41.882C187.439 41.354 187.343 40.762 187.343 40.122C187.343 39.514 187.439 38.938 187.647 38.394C187.839 37.866 188.127 37.402 188.511 37.018C188.879 36.634 189.327 36.314 189.839 36.09C190.351 35.866 190.927 35.754 191.567 35.754C192.271 35.754 192.879 35.898 193.407 36.17C193.919 36.442 194.351 36.81 194.687 37.258C195.023 37.722 195.263 38.25 195.423 38.826C195.567 39.418 195.615 40.026 195.583 40.666H189.615ZM198.211 41.562C198.211 41.818 198.259 42.026 198.355 42.202C198.451 42.378 198.595 42.522 198.755 42.634C198.915 42.746 199.091 42.826 199.299 42.874C199.507 42.938 199.731 42.954 199.955 42.954C200.115 42.954 200.275 42.938 200.451 42.906C200.627 42.874 200.787 42.81 200.931 42.73C201.075 42.65 201.203 42.538 201.299 42.41C201.395 42.282 201.443 42.106 201.443 41.898C201.443 41.562 201.203 41.306 200.755 41.13C200.307 40.97 199.667 40.794 198.867 40.618C198.531 40.554 198.211 40.458 197.891 40.362C197.571 40.266 197.299 40.122 197.059 39.962C196.803 39.802 196.611 39.594 196.467 39.338C196.307 39.082 196.243 38.778 196.243 38.41C196.243 37.882 196.339 37.45 196.547 37.098C196.755 36.762 197.027 36.49 197.379 36.298C197.715 36.106 198.099 35.962 198.531 35.882C198.947 35.802 199.395 35.754 199.843 35.754C200.291 35.754 200.723 35.802 201.139 35.882C201.555 35.978 201.939 36.122 202.275 36.314C202.595 36.522 202.867 36.794 203.091 37.13C203.315 37.466 203.443 37.882 203.491 38.394H201.331C201.299 37.962 201.123 37.674 200.835 37.514C200.531 37.354 200.179 37.29 199.779 37.274C199.651 37.274 199.507 37.29 199.363 37.306C199.203 37.322 199.075 37.354 198.947 37.402C198.819 37.466 198.723 37.546 198.643 37.642C198.547 37.738 198.515 37.882 198.515 38.042C198.499 38.25 198.579 38.41 198.739 38.538C198.883 38.666 199.075 38.778 199.315 38.858C199.555 38.938 199.827 39.002 200.147 39.066C200.451 39.13 200.771 39.21 201.091 39.274C201.411 39.354 201.731 39.45 202.051 39.546C202.371 39.658 202.643 39.802 202.899 39.978C203.139 40.154 203.331 40.378 203.491 40.634C203.635 40.89 203.715 41.21 203.715 41.594C203.715 42.138 203.603 42.602 203.379 42.97C203.155 43.338 202.883 43.626 202.531 43.85C202.179 44.074 201.763 44.234 201.315 44.33C200.867 44.426 200.403 44.458 199.939 44.458C199.459 44.458 198.979 44.41 198.531 44.314C198.067 44.218 197.651 44.058 197.299 43.834C196.947 43.61 196.643 43.322 196.419 42.954C196.195 42.586 196.067 42.122 196.051 41.562H198.211ZM206.901 34.698H204.629V32.826H206.901V34.698ZM204.629 35.978H206.901V44.25H204.629V35.978ZM212.066 42.298C212.386 42.298 212.658 42.234 212.914 42.106C213.154 41.978 213.362 41.818 213.522 41.594C213.682 41.386 213.794 41.146 213.874 40.874C213.954 40.602 214.002 40.314 214.002 40.01C214.002 39.674 213.97 39.354 213.906 39.05C213.842 38.746 213.73 38.474 213.586 38.234C213.426 38.01 213.234 37.818 212.994 37.674C212.738 37.546 212.434 37.482 212.066 37.466C211.746 37.466 211.458 37.53 211.234 37.658C211.01 37.786 210.818 37.962 210.658 38.186C210.498 38.41 210.386 38.65 210.322 38.938C210.258 39.226 210.226 39.514 210.226 39.818C210.226 40.122 210.242 40.426 210.306 40.714C210.37 41.002 210.466 41.274 210.61 41.498C210.754 41.738 210.946 41.93 211.186 42.074C211.41 42.234 211.714 42.298 212.066 42.298ZM216.162 43.722C216.162 44.058 216.114 44.442 216.018 44.858C215.922 45.29 215.73 45.69 215.442 46.058C215.138 46.426 214.706 46.73 214.146 46.986C213.57 47.242 212.818 47.37 211.874 47.37C211.458 47.37 211.042 47.322 210.626 47.226C210.21 47.13 209.826 46.97 209.474 46.746C209.122 46.538 208.834 46.266 208.61 45.93C208.386 45.594 208.258 45.194 208.226 44.714H210.482C210.578 45.146 210.786 45.45 211.106 45.61C211.41 45.77 211.762 45.85 212.178 45.85C212.818 45.85 213.282 45.658 213.57 45.274C213.858 44.89 214.002 44.41 214.002 43.818V42.73H213.97C213.714 43.178 213.362 43.498 212.914 43.706C212.466 43.914 211.986 44.01 211.49 44.01C210.866 44.01 210.338 43.914 209.89 43.69C209.442 43.466 209.074 43.178 208.786 42.794C208.498 42.41 208.274 41.978 208.146 41.466C208.018 40.954 207.954 40.426 207.954 39.85C207.954 39.322 208.018 38.81 208.178 38.314C208.338 37.818 208.562 37.386 208.866 37.002C209.154 36.618 209.522 36.314 209.97 36.09C210.418 35.866 210.93 35.754 211.506 35.754C212.05 35.754 212.514 35.866 212.93 36.058C213.346 36.266 213.682 36.602 213.97 37.082H214.002V35.978H216.162V43.722ZM217.511 35.978H219.671V37.13H219.719C220.007 36.65 220.375 36.314 220.839 36.09C221.287 35.866 221.767 35.754 222.247 35.754C222.855 35.754 223.351 35.85 223.735 36.01C224.119 36.17 224.439 36.41 224.663 36.698C224.887 36.986 225.031 37.354 225.127 37.77C225.223 38.186 225.271 38.65 225.271 39.162V44.25H222.999V39.578C222.999 38.906 222.887 38.394 222.679 38.058C222.455 37.722 222.087 37.546 221.543 37.546C220.919 37.546 220.471 37.738 220.199 38.106C219.911 38.474 219.783 39.082 219.783 39.914V44.25H217.511V35.978Z" fill="#949494"/>
<rect x="156.5" y="24.5" width="89" height="27" rx="13.5" stroke="#949494"/>
<path d="M288.116 42.138H290.356C290.708 42.138 291.06 42.09 291.412 41.962C291.748 41.85 292.052 41.658 292.324 41.386C292.58 41.114 292.804 40.762 292.964 40.314C293.124 39.882 293.204 39.354 293.204 38.714C293.204 38.138 293.14 37.626 293.028 37.162C292.916 36.698 292.74 36.298 292.484 35.962C292.228 35.642 291.876 35.386 291.46 35.21C291.044 35.034 290.516 34.938 289.908 34.938H288.116V42.138ZM285.604 32.826H290.532C291.268 32.826 291.94 32.954 292.58 33.178C293.22 33.418 293.764 33.77 294.228 34.234C294.692 34.714 295.06 35.29 295.316 35.994C295.572 36.698 295.7 37.53 295.716 38.474C295.716 39.306 295.604 40.074 295.396 40.778C295.172 41.482 294.852 42.09 294.42 42.602C293.988 43.114 293.444 43.53 292.804 43.818C292.164 44.106 291.396 44.25 290.532 44.25H285.604V32.826ZM302.311 39.226C302.199 38.65 302.007 38.218 301.735 37.914C301.463 37.626 301.047 37.482 300.503 37.466C300.135 37.466 299.831 37.53 299.591 37.658C299.351 37.786 299.159 37.93 299.015 38.106C298.871 38.298 298.775 38.49 298.711 38.682C298.647 38.89 298.615 39.066 298.615 39.226H302.311ZM298.615 40.666C298.647 41.402 298.823 41.946 299.175 42.266C299.511 42.602 300.007 42.762 300.647 42.762C301.095 42.762 301.495 42.65 301.831 42.426C302.151 42.202 302.359 41.946 302.439 41.69H304.439C304.119 42.682 303.623 43.402 302.967 43.818C302.295 44.25 301.495 44.458 300.567 44.458C299.911 44.458 299.319 44.362 298.807 44.154C298.279 43.946 297.831 43.642 297.479 43.258C297.111 42.874 296.823 42.426 296.631 41.882C296.439 41.354 296.343 40.762 296.343 40.122C296.343 39.514 296.439 38.938 296.647 38.394C296.839 37.866 297.127 37.402 297.511 37.018C297.879 36.634 298.327 36.314 298.839 36.09C299.351 35.866 299.927 35.754 300.567 35.754C301.271 35.754 301.879 35.898 302.407 36.17C302.919 36.442 303.351 36.81 303.687 37.258C304.023 37.722 304.263 38.25 304.423 38.826C304.567 39.418 304.615 40.026 304.583 40.666H298.615ZM310.027 44.25H307.499L304.667 35.978H307.051L308.795 41.626H308.827L310.571 35.978H312.827L310.027 44.25ZM318.851 39.226C318.739 38.65 318.547 38.218 318.275 37.914C318.003 37.626 317.587 37.482 317.043 37.466C316.675 37.466 316.371 37.53 316.131 37.658C315.891 37.786 315.699 37.93 315.555 38.106C315.411 38.298 315.315 38.49 315.251 38.682C315.187 38.89 315.155 39.066 315.155 39.226H318.851ZM315.155 40.666C315.187 41.402 315.363 41.946 315.715 42.266C316.051 42.602 316.547 42.762 317.187 42.762C317.635 42.762 318.035 42.65 318.371 42.426C318.691 42.202 318.899 41.946 318.979 41.69H320.979C320.659 42.682 320.163 43.402 319.507 43.818C318.835 44.25 318.035 44.458 317.107 44.458C316.451 44.458 315.859 44.362 315.347 44.154C314.819 43.946 314.371 43.642 314.019 43.258C313.651 42.874 313.363 42.426 313.171 41.882C312.979 41.354 312.883 40.762 312.883 40.122C312.883 39.514 312.979 38.938 313.187 38.394C313.379 37.866 313.667 37.402 314.051 37.018C314.419 36.634 314.867 36.314 315.379 36.09C315.891 35.866 316.467 35.754 317.107 35.754C317.811 35.754 318.419 35.898 318.947 36.17C319.459 36.442 319.891 36.81 320.227 37.258C320.563 37.722 320.803 38.25 320.963 38.826C321.107 39.418 321.155 40.026 321.123 40.666H315.155ZM322.055 32.826H324.327V44.25H322.055V32.826ZM327.652 40.122C327.652 40.458 327.684 40.778 327.748 41.098C327.812 41.418 327.908 41.69 328.068 41.946C328.228 42.202 328.436 42.394 328.692 42.538C328.948 42.698 329.268 42.762 329.652 42.762C330.036 42.762 330.356 42.698 330.612 42.538C330.868 42.394 331.076 42.202 331.236 41.946C331.396 41.69 331.492 41.418 331.572 41.098C331.636 40.778 331.668 40.458 331.668 40.122C331.668 39.802 331.636 39.466 331.572 39.146C331.508 38.826 331.396 38.554 331.236 38.298C331.076 38.058 330.868 37.866 330.612 37.706C330.356 37.546 330.036 37.482 329.652 37.466C329.268 37.466 328.948 37.546 328.692 37.706C328.436 37.866 328.228 38.058 328.068 38.298C327.908 38.554 327.812 38.826 327.748 39.146C327.684 39.466 327.652 39.802 327.652 40.122ZM325.38 40.122C325.38 39.466 325.476 38.874 325.684 38.33C325.876 37.786 326.164 37.338 326.548 36.954C326.916 36.57 327.364 36.282 327.892 36.074C328.404 35.866 328.996 35.754 329.652 35.754C330.292 35.754 330.884 35.866 331.412 36.074C331.94 36.282 332.388 36.57 332.772 36.954C333.14 37.338 333.428 37.786 333.636 38.33C333.828 38.874 333.94 39.466 333.94 40.122C333.94 40.794 333.828 41.386 333.636 41.914C333.428 42.458 333.14 42.906 332.772 43.29C332.388 43.674 331.94 43.962 331.412 44.154C330.884 44.362 330.292 44.458 329.652 44.458C328.996 44.458 328.404 44.362 327.892 44.154C327.364 43.962 326.916 43.674 326.548 43.29C326.164 42.906 325.876 42.458 325.684 41.914C325.476 41.386 325.38 40.794 325.38 40.122ZM339.113 42.762C339.481 42.762 339.785 42.698 340.041 42.538C340.297 42.394 340.489 42.202 340.649 41.962C340.809 41.722 340.905 41.434 340.985 41.114C341.049 40.794 341.081 40.474 341.081 40.138C341.081 39.818 341.033 39.482 340.969 39.162C340.905 38.858 340.793 38.57 340.633 38.314C340.473 38.058 340.265 37.866 340.009 37.706C339.753 37.546 339.449 37.482 339.097 37.466C338.713 37.466 338.409 37.546 338.153 37.706C337.897 37.866 337.705 38.058 337.545 38.298C337.385 38.554 337.289 38.826 337.225 39.146C337.161 39.466 337.129 39.802 337.129 40.138C337.113 40.474 337.161 40.794 337.225 41.114C337.289 41.434 337.401 41.722 337.561 41.962C337.721 42.202 337.929 42.394 338.185 42.538C338.441 42.698 338.745 42.762 339.113 42.762ZM334.937 35.978H337.097V37.034H337.129C337.401 36.586 337.753 36.266 338.185 36.058C338.601 35.866 339.081 35.754 339.593 35.754C340.233 35.754 340.793 35.882 341.273 36.122C341.737 36.378 342.121 36.698 342.441 37.098C342.745 37.514 342.969 37.978 343.129 38.522C343.273 39.066 343.337 39.626 343.353 40.202C343.353 40.762 343.273 41.29 343.129 41.802C342.969 42.314 342.745 42.778 342.441 43.162C342.137 43.562 341.753 43.882 341.305 44.106C340.857 44.346 340.329 44.458 339.721 44.458C339.209 44.458 338.729 44.362 338.297 44.154C337.865 43.946 337.513 43.642 337.241 43.226H337.209V47.146H334.937V35.978ZM344.302 35.978H346.446V37.098H346.478C346.766 36.682 347.134 36.346 347.55 36.106C347.966 35.882 348.462 35.754 349.006 35.754C349.518 35.754 349.998 35.866 350.43 36.058C350.862 36.266 351.198 36.618 351.422 37.13C351.662 36.778 351.998 36.458 352.414 36.17C352.83 35.898 353.326 35.77 353.918 35.754C354.35 35.754 354.75 35.818 355.134 35.914C355.502 36.026 355.822 36.202 356.094 36.426C356.35 36.666 356.558 36.97 356.718 37.354C356.862 37.738 356.926 38.186 356.942 38.714V44.25H354.67V39.562C354.67 39.29 354.654 39.034 354.638 38.778C354.606 38.538 354.558 38.33 354.462 38.138C354.366 37.962 354.222 37.818 354.03 37.706C353.838 37.61 353.598 37.562 353.278 37.546C352.958 37.546 352.686 37.61 352.494 37.738C352.302 37.866 352.142 38.026 352.03 38.218C351.918 38.41 351.838 38.634 351.806 38.89C351.774 39.146 351.758 39.386 351.758 39.642V44.25H349.486V39.61C349.486 39.37 349.47 39.13 349.47 38.89C349.454 38.65 349.406 38.426 349.326 38.218C349.246 38.026 349.118 37.866 348.926 37.738C348.734 37.61 348.462 37.562 348.11 37.546C347.998 37.546 347.854 37.578 347.678 37.626C347.502 37.674 347.326 37.77 347.166 37.898C347.006 38.026 346.862 38.218 346.75 38.474C346.622 38.73 346.574 39.05 346.574 39.45V44.25H344.302V35.978ZM363.826 39.226C363.714 38.65 363.522 38.218 363.25 37.914C362.978 37.626 362.562 37.482 362.018 37.466C361.65 37.466 361.346 37.53 361.106 37.658C360.866 37.786 360.674 37.93 360.53 38.106C360.386 38.298 360.29 38.49 360.226 38.682C360.162 38.89 360.13 39.066 360.13 39.226H363.826ZM360.13 40.666C360.162 41.402 360.338 41.946 360.69 42.266C361.026 42.602 361.522 42.762 362.162 42.762C362.61 42.762 363.01 42.65 363.346 42.426C363.666 42.202 363.874 41.946 363.954 41.69H365.954C365.634 42.682 365.138 43.402 364.482 43.818C363.81 44.25 363.01 44.458 362.082 44.458C361.426 44.458 360.834 44.362 360.322 44.154C359.794 43.946 359.346 43.642 358.994 43.258C358.626 42.874 358.338 42.426 358.146 41.882C357.954 41.354 357.858 40.762 357.858 40.122C357.858 39.514 357.954 38.938 358.162 38.394C358.354 37.866 358.642 37.402 359.026 37.018C359.394 36.634 359.842 36.314 360.354 36.09C360.866 35.866 361.442 35.754 362.082 35.754C362.786 35.754 363.394 35.898 363.922 36.17C364.434 36.442 364.866 36.81 365.202 37.258C365.538 37.722 365.778 38.25 365.938 38.826C366.082 39.418 366.13 40.026 366.098 40.666H360.13ZM366.966 35.978H369.126V37.13H369.174C369.462 36.65 369.83 36.314 370.294 36.09C370.742 35.866 371.222 35.754 371.702 35.754C372.31 35.754 372.806 35.85 373.19 36.01C373.574 36.17 373.894 36.41 374.118 36.698C374.342 36.986 374.486 37.354 374.582 37.77C374.678 38.186 374.726 38.65 374.726 39.162V44.25H372.454V39.578C372.454 38.906 372.342 38.394 372.134 38.058C371.91 37.722 371.542 37.546 370.998 37.546C370.374 37.546 369.926 37.738 369.654 38.106C369.366 38.474 369.238 39.082 369.238 39.914V44.25H366.966V35.978ZM378.85 35.978H380.514V37.498H378.85V41.594C378.85 41.978 378.914 42.234 379.042 42.362C379.17 42.49 379.426 42.554 379.81 42.554C379.938 42.57 380.05 42.554 380.178 42.538C380.29 42.538 380.402 42.522 380.514 42.49V44.25C380.322 44.282 380.098 44.314 379.874 44.314C379.634 44.33 379.41 44.33 379.186 44.33C378.834 44.33 378.498 44.314 378.178 44.266C377.858 44.218 377.586 44.122 377.346 43.978C377.106 43.85 376.914 43.642 376.786 43.386C376.642 43.13 376.578 42.794 376.578 42.378V37.498H375.202V35.978H376.578V33.498H378.85V35.978Z" fill="#949494"/>
<rect x="268.5" y="24.5" width="129" height="27" rx="13.5" stroke="#949494"/>
</g>
<defs>
<clipPath id="clip0_2585_57431">
<rect width="874" height="549" fill="white"/>
</clipPath>
<clipPath id="clip1_2585_57431">
<rect width="61" height="21.75" fill="white" transform="translate(50 27.125)"/>
</clipPath>
</defs>
</svg>
