<svg width="275" height="30" viewBox="0 0 275 30" fill="none" xmlns="http://www.w3.org/2000/svg">
<mask id="mask0_2048_64450" style="mask-type:luminance" maskUnits="userSpaceOnUse" x="141" y="0" width="134" height="30">
<path fill-rule="evenodd" clip-rule="evenodd" d="M141.754 0H275V30H141.754V0Z" fill="white"/>
</mask>
<g mask="url(#mask0_2048_64450)">
<path fill-rule="evenodd" clip-rule="evenodd" d="M168.027 26.9138V15.159H157.318V18.1544H164.488V25.1439C162.99 26.1877 160.631 26.8688 157.681 26.8688C151.375 26.8688 145.521 22.6929 145.521 15.1134C145.521 7.48899 151.51 3.31311 157.636 3.31311C160.721 3.31311 163.626 4.2664 165.713 5.5824L166.439 2.26929C164.261 0.907718 161.085 0 157.228 0C149.741 0 141.754 5.31021 141.754 15.0223C141.754 24.5533 149.514 30.0003 157.455 30.0003C161.811 30.0003 165.26 29.047 168.027 26.9138ZM200.244 0.544377H196.388L190.352 9.0316C189.49 10.2571 188.356 11.9364 187.494 13.298H187.403C186.541 11.9364 185.452 10.3482 184.544 9.0316L178.509 0.544377H174.425L185.497 16.1572V29.5008H189.127V16.1572L200.244 0.544377ZM232.961 15.0223C232.961 5.76407 225.519 0.544377 217.124 0.544377H208.865V29.5008H217.124C225.519 29.5008 232.961 24.2818 232.961 15.0223ZM229.148 15.0679C229.148 22.6018 223.568 26.3694 216.489 26.3694H212.631V3.76696H216.489C223.568 3.76696 229.148 7.53393 229.148 15.0679ZM259.369 29.5008V26.2782H246.119V16.5655H255.784V13.3436H246.119V3.76696H257.735V0.544377H242.399V29.5008H259.369ZM275 5.77293L274.573 0.503232H273.946L272.095 4.29172L270.188 0.503232H269.561L269.134 5.77293H270.016L270.273 2.61111L271.868 5.80142H272.181L273.833 2.58263L274.089 5.77293H275ZM268.792 1.32929V0.503232H264.777V1.32929H266.343V5.77293H267.226V1.32929H268.792Z" fill="#808184"/>
</g>
<path fill-rule="evenodd" clip-rule="evenodd" d="M21.599 29.5009L11.5706 15.9307C14.6109 14.8869 16.9709 12.3448 16.9709 8.53285C16.9709 3.31316 12.6142 0.544434 8.34873 0.544434H0V29.5009H3.67504V16.5206H7.62284L16.9709 29.5009H21.599ZM13.1591 8.62337C13.1591 11.8004 10.6175 13.4341 7.7589 13.4341H3.67504V3.76702H7.71397C10.6175 3.76702 13.1591 5.49194 13.1591 8.62337ZM49.2785 0.544434H45.4219L39.3862 9.03166C38.5243 10.2571 37.3902 11.9365 36.5276 13.2981H36.4371C35.5745 11.9365 34.486 10.3483 33.5785 9.03166L27.5435 0.544434H23.459L34.5315 16.1573V29.5009H38.161V16.1573L49.2785 0.544434ZM81.9944 15.0223C81.9944 5.76413 74.5526 0.544434 66.1576 0.544434H57.8994V29.5009H66.1576C74.5526 29.5009 81.9944 24.2818 81.9944 15.0223ZM78.1826 15.0679C78.1826 22.6025 72.6014 26.3694 65.5229 26.3694H61.6656V3.76702H65.5229C72.6014 3.76702 78.1826 7.53399 78.1826 15.0679ZM108.403 29.5009V26.2783H95.1535V16.5656H104.819V13.3436H95.1535V3.76702H106.77V0.544434H91.4323V29.5009H108.403ZM137.852 29.5009L127.824 15.9307C130.863 14.8869 133.223 12.3448 133.223 8.53285C133.223 3.31316 128.867 0.544434 124.602 0.544434H116.253V29.5009H119.928V16.5206H123.875L133.223 29.5009H137.852ZM129.412 8.62337C129.412 11.8004 126.871 13.4341 124.012 13.4341H119.928V3.76702H123.967C126.871 3.76702 129.412 5.49194 129.412 8.62337Z" fill="#CE1126"/>
</svg>
