<svg width="272" height="58" viewBox="0 0 272 58" fill="none" xmlns="http://www.w3.org/2000/svg">
<g clip-path="url(#clip0_543_18598)">
<path d="M126.892 52.6823C128.007 52.435 128.751 51.4456 128.689 50.3326C128.689 48.8486 127.635 47.7356 125.777 47.7356H120.944V58H125.901C127.821 58 128.875 56.8252 128.875 55.2175C128.875 54.0426 128.069 52.9915 126.892 52.6823ZM122.493 49.0959H125.467C126.272 49.0341 127.016 49.6524 127.078 50.5181C127.14 51.322 126.52 52.064 125.653 52.1258C125.591 52.1258 125.529 52.1258 125.467 52.1258H122.493V49.0959ZM125.591 56.6397H122.493V53.4243H125.591C126.458 53.3625 127.202 53.9808 127.326 54.7846C127.326 54.8465 127.326 54.9083 127.326 54.9701C127.388 55.8358 126.706 56.516 125.901 56.5778C125.715 56.6397 125.653 56.6397 125.591 56.6397Z" fill="#00319A"/>
<path d="M140.957 52.3113L137.983 47.7356H136.186L140.213 53.7335V58H141.762V53.7335L145.728 47.7356H143.993L140.957 52.3113Z" fill="#00319A"/>
<path d="M194.242 50.8891C194.242 48.9723 192.878 47.7356 190.958 47.7356H186.621V58H188.17V54.0426H190.09L192.569 58H194.365L191.763 53.919C193.25 53.7335 194.365 52.435 194.242 50.8891ZM188.17 52.6823V49.0959H190.772C191.763 49.0959 192.569 49.8998 192.569 50.8891C192.569 51.8785 191.763 52.6823 190.772 52.6823H188.17Z" fill="#00319A"/>
<path d="M206.571 52.3113L203.535 47.7356H201.8L205.828 53.7335V58H207.315V53.7335L211.342 47.7356H209.545L206.571 52.3113Z" fill="#00319A"/>
<path d="M223.176 47.7356H219.521V58H223.176C226.398 58 228.505 55.8358 228.505 52.8678C228.505 49.8998 226.398 47.7356 223.176 47.7356ZM223.176 56.6397H221.069V49.0959H223.176C225.593 49.0959 226.894 50.7654 226.894 52.8678C227.018 54.8465 225.469 56.516 223.548 56.6397C223.424 56.6397 223.3 56.6397 223.176 56.6397Z" fill="#00319A"/>
<path d="M237.303 58H244.18V56.6397H238.852V53.4243H244.118V52.064H238.852V49.0959H244.18V47.7356H237.303V58Z" fill="#00319A"/>
<path d="M260.723 50.8891C260.723 48.9723 259.36 47.7356 257.44 47.7356H253.103V58H254.652V54.0426H256.572L259.051 58H260.847L258.245 53.919C259.67 53.7335 260.785 52.435 260.723 50.8891ZM254.59 52.6823V49.0959H257.192C258.183 49.0959 258.989 49.8998 258.989 50.8891C258.989 51.8785 258.183 52.6823 257.192 52.6823H254.59Z" fill="#00319A"/>
<path d="M0 6.49252H9.29385V32.2772H16.1093V6.49252H25.3412L33.4579 0.556488H0V6.49252Z" fill="#00319A"/>
<path d="M57.8697 0C48.328 0 41.3267 6.86354 41.3267 16.3859C41.3267 25.9083 48.328 32.8337 57.8697 32.8337C67.4114 32.8337 74.4747 25.9701 74.4747 16.4478C74.4747 6.92537 67.5353 0 57.8697 0ZM57.8697 26.8358C51.9836 26.8358 48.2661 22.322 48.2661 16.3859C48.2661 10.4499 52.0456 5.99787 57.8697 5.99787C63.6939 5.99787 67.5353 10.4499 67.5353 16.3859C67.5353 22.322 63.7558 26.8358 57.8697 26.8358Z" fill="#00319A"/>
<path d="M119.147 10.759C119.147 4.88484 115.12 0.556488 108.49 0.556488H93.6201V32.2772H100.374V20.8998H105.33L111.588 32.2772H119.333L112.208 20.2196C115.616 19.3539 119.147 16.3859 119.147 10.759ZM107.437 15.0874H100.374V6.30702H107.499C110.225 6.30702 112.27 8.03836 112.27 10.6972C112.27 13.3561 110.163 15.0874 107.437 15.0874Z" fill="#00319A"/>
<path d="M210.846 19.3539C210.846 23.806 208.43 26.8358 203.535 26.8358C198.579 26.8358 196.162 23.806 196.162 19.3539V0.494659H189.347V19.6013C189.347 27.3923 193.87 32.8337 203.597 32.8337C213.201 32.8337 217.724 27.4541 217.724 19.5394V0.494659H210.846V19.3539Z" fill="#00319A"/>
<path d="M260.786 26.403H245.048V19.0448H260.414V13.2324H245.048V6.30702H260.786L268.902 0.556488H238.294V32.2772H260.786V26.403Z" fill="#00319A"/>
<path d="M264.193 26.8358H265.433V30.2985H265.928V26.8358H267.167V26.403H264.193V26.8358Z" fill="#00319A"/>
<path d="M271.319 26.403L270.079 29.371L268.902 26.403H268.159V30.2985H268.654V27.0832L270.017 30.2985H270.203L271.566 27.0832V30.2985H272V26.403H271.319Z" fill="#00319A"/>
<path d="M156.509 32.5864C164.625 31.3497 170.264 24.9808 170.264 16.3859C170.264 6.80171 163.262 0 153.659 0C144.055 0 137.054 6.86354 137.054 16.3859C136.992 20.5906 138.541 24.6716 141.391 27.7633C141.453 27.887 141.577 28.0107 141.7 28.0725L172.494 57.6908L156.509 32.5864ZM142.01 16.3241L147.772 6.30704H159.359L165.121 16.3241L159.359 26.2793H147.772L142.01 16.3241Z" fill="#F47634"/>
</g>
<defs>
<clipPath id="clip0_543_18598">
<rect width="272" height="58" fill="white"/>
</clipPath>
</defs>
</svg>
