<svg width="256" height="256" viewBox="0 0 256 256" fill="none" xmlns="http://www.w3.org/2000/svg">
<path d="M161.968 170.952C158.587 186.702 139.855 218.679 131.9 232.042H181.058C181.058 232.042 255.989 163.316 255.989 99.3623C255.989 45.9087 214.905 23 183.405 23C132.536 23 105.498 61.5935 106.566 99.3623C107.571 134.944 120.884 158.066 161.968 170.952Z" fill="#E43292"/>
<path d="M56.0226 170.959C51.25 188.618 33.9097 218.686 25.9553 232.049H75.1133C75.1133 232.049 147.618 167.141 150.044 99.3694C151.77 51.1657 106.534 23.4844 77.9375 23.4844C25.9553 23.4844 0.00538911 62.6201 0.00538911 99.3694C-0.382521 133.682 20.1885 162.368 56.0226 170.959Z" fill="#00B9E8"/>
<mask id="mask0_1831_60361" style="mask-type:alpha" maskUnits="userSpaceOnUse" x="106" y="23" width="151" height="210">
<path d="M161.981 170.952C158.601 186.702 139.868 218.679 131.914 232.042H181.072C181.072 232.042 256.003 163.316 256.003 99.3623C256.003 45.9087 214.918 23 183.419 23C132.549 23 105.512 61.5935 106.579 99.3623C107.585 134.944 120.897 158.066 161.981 170.952Z" fill="#E43292"/>
</mask>
<g mask="url(#mask0_1831_60361)">
<g style="mix-blend-mode:multiply">
<path d="M56.0363 170.959C51.2637 188.618 33.9234 218.686 25.969 232.049H75.1269C75.1269 232.049 147.632 167.141 150.058 99.3694C151.783 51.1657 106.548 23.4844 77.9512 23.4844C25.969 23.4844 0.019061 62.6201 0.019061 99.3694C-0.368849 133.682 20.2022 162.368 56.0363 170.959Z" fill="#7176BD"/>
</g>
</g>
<path fill-rule="evenodd" clip-rule="evenodd" d="M128.526 60.5937C130.152 60.5937 131.471 61.9119 131.471 63.538L131.471 135.128C131.471 136.754 130.152 138.072 128.526 138.072C126.9 138.072 125.582 136.754 125.582 135.128L125.582 63.538C125.582 61.9119 126.9 60.5937 128.526 60.5937Z" fill="white"/>
<circle cx="51.6604" cy="77.3791" r="8.1135" fill="white"/>
<circle cx="51.6604" cy="99.3479" r="8.1135" fill="white"/>
<circle cx="51.6604" cy="121.272" r="8.1135" fill="white"/>
<circle cx="73.6291" cy="77.3791" r="8.1135" fill="white"/>
<circle cx="73.6291" cy="99.3479" r="8.1135" fill="white"/>
<circle cx="73.6291" cy="121.272" r="8.1135" fill="white"/>
<circle cx="95.5529" cy="77.3791" r="8.1135" fill="white"/>
<circle cx="95.5529" cy="99.3479" r="8.1135" fill="white"/>
<circle cx="95.5529" cy="121.272" r="8.1135" fill="white"/>
<circle cx="161.43" cy="77.3791" r="8.1135" fill="white"/>
<circle cx="161.43" cy="99.3479" r="8.1135" fill="white"/>
<circle cx="161.43" cy="121.272" r="8.1135" fill="white"/>
<circle cx="183.399" cy="77.3791" r="8.1135" fill="white"/>
<circle cx="183.399" cy="99.3479" r="8.1135" fill="white"/>
<circle cx="183.399" cy="121.272" r="8.1135" fill="white"/>
<circle cx="205.322" cy="77.3791" r="8.1135" fill="white"/>
<circle cx="205.322" cy="99.3479" r="8.1135" fill="white"/>
<circle cx="205.322" cy="121.272" r="8.1135" fill="white"/>
</svg>
