<?xml version="1.0" encoding="utf-8"?>
<!-- Generator: Adobe Illustrator 27.5.0, SVG Export Plug-In . SVG Version: 6.00 Build 0)  -->
<svg version="1.1" id="Layer_1" xmlns="http://www.w3.org/2000/svg" xmlns:xlink="http://www.w3.org/1999/xlink" x="0px" y="0px"
	 viewBox="0 0 250 57" style="enable-background:new 0 0 250 57;" xml:space="preserve">
<path d="M13.5,19.1V36h5c2.6,0,4.3-1.3,5.3-3.8c0.6-1.4,0.8-3,0.8-4.9c0-2.6-0.4-4.7-1.2-6.1c-0.8-1.4-2.5-2.1-4.9-2.1H13.5z
	 M19.4,14.6c1.6,0,2.9,0.2,4,0.6c1.8,0.6,3.3,1.7,4.4,3.3c0.9,1.3,1.5,2.7,1.8,4.2c0.3,1.5,0.5,2.9,0.5,4.3c0,3.4-0.7,6.4-2.1,8.8
	c-1.9,3.2-4.8,4.8-8.7,4.8H8.2V14.6H19.4z M41.4,37c1.5,0,2.6-0.5,3.4-1.6c0.8-1,1.2-2.5,1.2-4.4s-0.4-3.4-1.2-4.4
	c-0.8-1-1.9-1.6-3.4-1.6c-1.5,0-2.6,0.5-3.4,1.6c-0.8,1-1.2,2.5-1.2,4.4s0.4,3.4,1.2,4.4C38.8,36.4,39.9,37,41.4,37z M51.2,31
	c0,2.8-0.8,5.2-2.4,7.2c-1.6,2-4.1,3-7.4,3s-5.7-1-7.4-3c-1.6-2-2.4-4.4-2.4-7.2c0-2.8,0.8-5.2,2.4-7.2c1.6-2,4.1-3,7.4-3
	s5.7,1,7.4,3C50.4,25.8,51.2,28.2,51.2,31z M58.7,21.3v11.5c0,1.1,0.1,1.9,0.4,2.5c0.5,1,1.4,1.5,2.7,1.5c1.7,0,2.9-0.7,3.5-2.1
	c0.3-0.8,0.5-1.7,0.5-3V21.3h5.1v19.2H66v-2.7c0,0.1-0.2,0.2-0.4,0.5s-0.4,0.6-0.7,0.8c-0.8,0.7-1.5,1.2-2.3,1.4
	c-0.7,0.3-1.6,0.4-2.6,0.4c-2.8,0-4.7-1-5.7-3.1c-0.6-1.1-0.8-2.8-0.8-5V21.3H58.7z M85,20.9c2.5,0,4.5,0.9,5.9,2.7
	c1.4,1.8,2.1,4.2,2.1,7c0,3-0.7,5.4-2.1,7.4C89.5,40,87.6,41,85,41c-1.6,0-2.9-0.3-3.8-0.9c-0.6-0.4-1.2-1-1.9-2v2.4h-4.9V14.6h5
	v9.2c0.6-0.9,1.3-1.6,2.1-2C82.4,21.2,83.6,20.9,85,20.9z M83.7,36.9c1.3,0,2.3-0.5,3-1.6c0.7-1,1.1-2.4,1.1-4.1
	c0-1.4-0.2-2.5-0.5-3.4c-0.7-1.7-1.9-2.5-3.7-2.5c-1.8,0-3.1,0.8-3.7,2.5c-0.4,0.9-0.5,2-0.5,3.4c0,1.6,0.4,3,1.1,4.1
	C81.1,36.3,82.2,36.9,83.7,36.9z M100.7,40.5h-5V14.6h5V40.5z M112.1,25c-1.2,0-2.1,0.4-2.7,1.1c-0.6,0.7-1,1.7-1.2,3h7.8
	c-0.1-1.3-0.5-2.3-1.2-3C114,25.3,113.1,25,112.1,25z M112.1,20.8c1.6,0,3,0.3,4.3,0.9c1.3,0.6,2.3,1.5,3.2,2.8
	c0.8,1.1,1.2,2.5,1.5,4c0.1,0.9,0.2,2.1,0.2,3.8H108c0.1,1.9,0.7,3.3,1.8,4c0.7,0.5,1.5,0.7,2.5,0.7c1,0,1.9-0.3,2.5-0.9
	c0.4-0.3,0.7-0.8,0.9-1.3h5.1c-0.1,1.1-0.7,2.3-1.8,3.5c-1.6,1.9-3.9,2.8-6.9,2.8c-2.4,0-4.6-0.8-6.5-2.4c-1.9-1.6-2.8-4.1-2.8-7.7
	c0-3.3,0.8-5.9,2.5-7.6C107.2,21.7,109.4,20.8,112.1,20.8z M132.7,14.6h5.7l10.3,18.1V14.6h5v25.9h-5.4l-10.6-18.4v18.4h-5V14.6z
	 M162.5,19.1h-5.1v-4.6h5.1V19.1z M157.4,21.3h5.1v19.2h-5.1V21.3z M176.9,20.9c2,0,3.6,0.5,4.9,1.6c1.3,1,1.9,2.7,1.9,5.2v12.9
	h-5.1V28.8c0-1-0.1-1.8-0.4-2.3c-0.5-1-1.4-1.5-2.8-1.5c-1.7,0-2.9,0.7-3.5,2.2c-0.3,0.8-0.5,1.7-0.5,2.9v10.4h-5V21.4h4.8v2.8
	c0.6-1,1.3-1.7,1.8-2.1C174,21.3,175.3,20.9,176.9,20.9z M194.8,25c-1.2,0-2.1,0.4-2.7,1.1c-0.6,0.7-1,1.7-1.2,3h7.8
	c-0.1-1.3-0.5-2.3-1.2-3C196.7,25.3,195.8,25,194.8,25z M194.8,20.8c1.6,0,3,0.3,4.3,0.9c1.3,0.6,2.3,1.5,3.2,2.8
	c0.8,1.1,1.2,2.5,1.5,4c0.1,0.9,0.2,2.1,0.2,3.8h-13.1c0.1,1.9,0.7,3.3,1.8,4c0.7,0.5,1.5,0.7,2.5,0.7c1,0,1.9-0.3,2.5-0.9
	c0.4-0.3,0.7-0.8,0.9-1.3h5.1c-0.1,1.1-0.7,2.3-1.8,3.5c-1.6,1.9-3.9,2.8-6.9,2.8c-2.4,0-4.6-0.8-6.5-2.4c-1.9-1.6-2.8-4.1-2.8-7.7
	c0-3.3,0.8-5.9,2.5-7.6C189.9,21.7,192.1,20.8,194.8,20.8z M210.1,34.4c0.1,0.9,0.3,1.5,0.7,1.9c0.6,0.7,1.8,1,3.4,1
	c1,0,1.8-0.1,2.3-0.4c0.6-0.3,0.9-0.7,0.9-1.3c0-0.6-0.2-1-0.7-1.3c-0.5-0.3-2.2-0.8-5.2-1.5c-2.2-0.5-3.7-1.2-4.6-2
	c-0.9-0.8-1.3-1.9-1.3-3.4c0-1.8,0.7-3.3,2.1-4.6c1.4-1.3,3.4-1.9,5.9-1.9c2.4,0,4.3,0.5,5.8,1.4c1.5,0.9,2.4,2.6,2.6,4.9h-5
	c-0.1-0.6-0.3-1.2-0.5-1.5c-0.6-0.7-1.5-1-2.8-1c-1.1,0-1.9,0.2-2.3,0.5c-0.5,0.3-0.7,0.7-0.7,1.2c0,0.6,0.2,1,0.7,1.2
	c0.5,0.3,2.2,0.7,5.2,1.4c2,0.5,3.5,1.2,4.5,2.1c1,1,1.5,2.2,1.5,3.6c0,1.9-0.7,3.5-2.1,4.7c-1.4,1.2-3.6,1.8-6.5,1.8
	c-3,0-5.2-0.6-6.7-1.9c-1.4-1.3-2.1-2.9-2.1-4.9H210.1z"/>
</svg>
